<svg width="40" height="40" viewBox="0 0 40 40" fill="none" xmlns="http://www.w3.org/2000/svg">
<path d="M11.1699 15.4401L19.9999 20.55L28.7699 15.47" stroke="#B7B0B0" stroke-width="1.5" stroke-linecap="round" stroke-linejoin="round"/>
<path d="M20 29.61V20.54" stroke="#B7B0B0" stroke-width="1.5" stroke-linecap="round" stroke-linejoin="round"/>
<path d="M10.3896 17.1701C10.3896 15.7901 11.3796 14.1101 12.5896 13.4401L17.9296 10.4701C19.0696 9.84006 20.9396 9.84006 22.0796 10.4701L27.4196 13.4401C28.6296 14.1101 29.6196 15.7901 29.6196 17.1701V22.8201C29.6196 24.2001 28.6296 25.8801 27.4196 26.5501L22.0796 29.5201C20.9396 30.1501 19.0696 30.1501 17.9296 29.5201L12.5896 26.5501C11.3796 25.8801 10.3896 24.2001 10.3896 22.8201V22.0001" stroke="#B7B0B0" stroke-width="1.5" stroke-linecap="round" stroke-linejoin="round"/>
<path d="M24.9998 21.24V17.58L18.9297 14.07L17.8798 13.47L15.5098 12.1" stroke="#B7B0B0" stroke-width="1.5" stroke-linecap="round" stroke-linejoin="round"/>
</svg>
