<svg width="29" height="31" viewBox="0 0 29 31" fill="none" xmlns="http://www.w3.org/2000/svg">
<g filter="url(#filter0_d_205_3860)">
<path d="M19.25 22.5C20.2165 22.5 21 21.7165 21 20.75C21 19.7835 20.2165 19 19.25 19C18.2835 19 17.5 19.7835 17.5 20.75C17.5 21.7165 18.2835 22.5 19.25 22.5Z" fill="#34CAA5"/>
<path d="M11.25 22.5C12.2165 22.5 13 21.7165 13 20.75C13 19.7835 12.2165 19 11.25 19C10.2835 19 9.5 19.7835 9.5 20.75C9.5 21.7165 10.2835 22.5 11.25 22.5Z" fill="#34CAA5"/>
<path opacity="0.4" d="M7.84 3.94L7.64 6.39C7.6 6.86 7.97 7.25 8.44 7.25H23.75C24.17 7.25 24.52 6.92999 24.55 6.50999C24.68 4.73999 23.33 3.3 21.56 3.3H9.28999C9.18999 2.86 8.98999 2.44 8.67999 2.09C8.18999 1.56 7.49 1.25 6.77 1.25H5C4.59 1.25 4.25 1.59 4.25 2C4.25 2.41 4.59 2.75 5 2.75H6.74001C7.05001 2.75 7.34 2.88001 7.55 3.10001C7.76 3.33001 7.86 3.63 7.84 3.94Z" fill="#34CAA5"/>
<path d="M23.5101 8.75H8.17006C7.75006 8.75 7.41005 9.07 7.37005 9.48L7.01005 13.83C6.87005 15.53 8.21006 17 9.92006 17H21.0401C22.5401 17 23.8601 15.77 23.9701 14.27L24.3001 9.60001C24.3401 9.14001 23.9801 8.75 23.5101 8.75Z" fill="#34CAA5"/>
</g>
<defs>
<filter id="filter0_d_205_3860" x="-1" y="0" width="32" height="32" filterUnits="userSpaceOnUse" color-interpolation-filters="sRGB">
<feFlood flood-opacity="0" result="BackgroundImageFix"/>
<feColorMatrix in="SourceAlpha" type="matrix" values="0 0 0 0 0 0 0 0 0 0 0 0 0 0 0 0 0 0 127 0" result="hardAlpha"/>
<feOffset dy="4"/>
<feGaussianBlur stdDeviation="2"/>
<feComposite in2="hardAlpha" operator="out"/>
<feColorMatrix type="matrix" values="0 0 0 0 0 0 0 0 0 0 0 0 0 0 0 0 0 0 0.25 0"/>
<feBlend mode="normal" in2="BackgroundImageFix" result="effect1_dropShadow_205_3860"/>
<feBlend mode="normal" in="SourceGraphic" in2="effect1_dropShadow_205_3860" result="shape"/>
</filter>
</defs>
</svg>
