<svg width="24" height="25" viewBox="0 0 24 25" fill="none" xmlns="http://www.w3.org/2000/svg">
<path d="M22 6.51025V18.5103C22 19.0603 21.8042 19.5311 21.4125 19.9228C21.0208 20.3144 20.55 20.5103 20 20.5103H4C3.45 20.5103 2.97917 20.3144 2.5875 19.9228C2.19583 19.5311 2 19.0603 2 18.5103V6.51025C2 5.96025 2.19583 5.48942 2.5875 5.09775C2.97917 4.70609 3.45 4.51025 4 4.51025H20C20.55 4.51025 21.0208 4.70609 21.4125 5.09775C21.8042 5.48942 22 5.96025 22 6.51025ZM4 8.51025H20V6.51025H4V8.51025ZM4 12.5103V18.5103H20V12.5103H4Z" fill="#111111"/>
</svg>
