<svg width="24" height="25" viewBox="0 0 24 25" fill="none" xmlns="http://www.w3.org/2000/svg">
<path d="M2 20.5103C1.71667 20.5103 1.47917 20.4144 1.2875 20.2228C1.09583 20.0311 1 19.7936 1 19.5103V17.7103C1 17.1436 1.14583 16.6228 1.4375 16.1478C1.72917 15.6728 2.11667 15.3103 2.6 15.0603C3.63333 14.5436 4.68333 14.1561 5.75 13.8978C6.81667 13.6394 7.9 13.5103 9 13.5103C10.1 13.5103 11.1833 13.6394 12.25 13.8978C13.3167 14.1561 14.3667 14.5436 15.4 15.0603C15.8833 15.3103 16.2708 15.6728 16.5625 16.1478C16.8542 16.6228 17 17.1436 17 17.7103V19.5103C17 19.7936 16.9042 20.0311 16.7125 20.2228C16.5208 20.4144 16.2833 20.5103 16 20.5103H2ZM18.525 20.5103C18.675 20.3936 18.7917 20.2478 18.875 20.0728C18.9583 19.8978 19 19.7019 19 19.4853V17.5103C19 16.7769 18.7958 16.0728 18.3875 15.3978C17.9792 14.7228 17.4 14.1436 16.65 13.6603C17.5 13.7603 18.3 13.9311 19.05 14.1728C19.8 14.4144 20.5 14.7103 21.15 15.0603C21.75 15.3936 22.2083 15.7644 22.525 16.1728C22.8417 16.5811 23 17.0269 23 17.5103V19.5103C23 19.7936 22.9042 20.0311 22.7125 20.2228C22.5208 20.4144 22.2833 20.5103 22 20.5103H18.525ZM9 12.5103C7.9 12.5103 6.95833 12.1186 6.175 11.3353C5.39167 10.5519 5 9.61025 5 8.51025C5 7.41025 5.39167 6.46859 6.175 5.68525C6.95833 4.90192 7.9 4.51025 9 4.51025C10.1 4.51025 11.0417 4.90192 11.825 5.68525C12.6083 6.46859 13 7.41025 13 8.51025C13 9.61025 12.6083 10.5519 11.825 11.3353C11.0417 12.1186 10.1 12.5103 9 12.5103ZM19 8.51025C19 9.61025 18.6083 10.5519 17.825 11.3353C17.0417 12.1186 16.1 12.5103 15 12.5103C14.8167 12.5103 14.5833 12.4894 14.3 12.4478C14.0167 12.4061 13.7833 12.3603 13.6 12.3103C14.05 11.7769 14.3958 11.1853 14.6375 10.5353C14.8792 9.88525 15 9.21025 15 8.51025C15 7.81025 14.8792 7.13525 14.6375 6.48525C14.3958 5.83525 14.05 5.24359 13.6 4.71025C13.8333 4.62692 14.0667 4.57275 14.3 4.54775C14.5333 4.52275 14.7667 4.51025 15 4.51025C16.1 4.51025 17.0417 4.90192 17.825 5.68525C18.6083 6.46859 19 7.41025 19 8.51025ZM3 18.5103H15V17.7103C15 17.5269 14.9542 17.3603 14.8625 17.2103C14.7708 17.0603 14.65 16.9436 14.5 16.8603C13.6 16.4103 12.6917 16.0728 11.775 15.8478C10.8583 15.6228 9.93333 15.5103 9 15.5103C8.06667 15.5103 7.14167 15.6228 6.225 15.8478C5.30833 16.0728 4.4 16.4103 3.5 16.8603C3.35 16.9436 3.22917 17.0603 3.1375 17.2103C3.04583 17.3603 3 17.5269 3 17.7103V18.5103ZM9 10.5103C9.55 10.5103 10.0208 10.3144 10.4125 9.92275C10.8042 9.53109 11 9.06025 11 8.51025C11 7.96025 10.8042 7.48942 10.4125 7.09775C10.0208 6.70609 9.55 6.51025 9 6.51025C8.45 6.51025 7.97917 6.70609 7.5875 7.09775C7.19583 7.48942 7 7.96025 7 8.51025C7 9.06025 7.19583 9.53109 7.5875 9.92275C7.97917 10.3144 8.45 10.5103 9 10.5103Z" fill="white"/>
</svg>
