<svg width="24" height="25" viewBox="0 0 24 25" fill="none" xmlns="http://www.w3.org/2000/svg">
<path d="M12 21.5103C9.48333 21.5103 7.35417 20.6394 5.6125 18.8978C3.87083 17.1561 3 15.0269 3 12.5103C3 10.2103 3.75 8.21445 5.25 6.52278C6.75 4.83111 8.66667 3.84361 11 3.56028C11.4167 3.51028 11.7417 3.66028 11.975 4.01028C12.2083 4.36028 12.2 4.72695 11.95 5.11028C11.6667 5.54361 11.4542 6.00195 11.3125 6.48528C11.1708 6.96861 11.1 7.47694 11.1 8.01028C11.1 9.51028 11.625 10.7853 12.675 11.8353C13.725 12.8853 15 13.4103 16.5 13.4103C17.0167 13.4103 17.5292 13.3353 18.0375 13.1853C18.5458 13.0353 19 12.8269 19.4 12.5603C19.75 12.3269 20.1083 12.3144 20.475 12.5228C20.8417 12.7311 21 13.0603 20.95 13.5103C20.7167 15.8103 19.7375 17.7186 18.0125 19.2353C16.2875 20.7519 14.2833 21.5103 12 21.5103ZM12 19.5103C13.4667 19.5103 14.7833 19.1061 15.95 18.2978C17.1167 17.4894 17.9667 16.4353 18.5 15.1353C18.1667 15.2186 17.8333 15.2853 17.5 15.3353C17.1667 15.3853 16.8333 15.4103 16.5 15.4103C14.45 15.4103 12.7042 14.6894 11.2625 13.2478C9.82083 11.8061 9.1 10.0603 9.1 8.01028C9.1 7.67695 9.125 7.34361 9.175 7.01028C9.225 6.67694 9.29167 6.34361 9.375 6.01028C8.075 6.54361 7.02083 7.39361 6.2125 8.56028C5.40417 9.72694 5 11.0436 5 12.5103C5 14.4436 5.68333 16.0936 7.05 17.4603C8.41667 18.8269 10.0667 19.5103 12 19.5103Z" fill="#111111"/>
</svg>
