<svg width="40" height="40" viewBox="0 0 40 40" fill="none" xmlns="http://www.w3.org/2000/svg">
<path d="M20.6796 11.96C21.1596 12.67 21.4396 13.52 21.4396 14.44C21.4296 16.84 19.5396 18.79 17.1596 18.87C17.0596 18.86 16.9396 18.86 16.8296 18.87C14.4496 18.79 12.5596 16.84 12.5596 14.44C12.5596 11.99 14.5396 10 16.9996 10" stroke="#B2ABAB" stroke-width="1.5" stroke-linecap="round" stroke-linejoin="round"/>
<path d="M24.4103 12C26.3503 12 27.9103 13.57 27.9103 15.5C27.9103 17.39 26.4103 18.93 24.5403 19C24.4603 18.99 24.3703 18.99 24.2803 19" stroke="#B2ABAB" stroke-width="1.5" stroke-linecap="round" stroke-linejoin="round"/>
<path d="M12.1597 22.56C9.73973 24.18 9.73973 26.82 12.1597 28.43C14.9097 30.27 19.4197 30.27 22.1697 28.43C24.5897 26.81 24.5897 24.17 22.1697 22.56C19.4297 20.73 14.9197 20.73 12.1597 22.56Z" stroke="#B2ABAB" stroke-width="1.5" stroke-linecap="round" stroke-linejoin="round"/>
<path d="M26.3398 28C27.0598 27.85 27.7398 27.56 28.2998 27.13C29.8598 25.96 29.8598 24.03 28.2998 22.86C27.7498 22.44 27.0798 22.16 26.3698 22" stroke="#B2ABAB" stroke-width="1.5" stroke-linecap="round" stroke-linejoin="round"/>
</svg>
