<svg width="57" height="65" viewBox="0 0 57 65" fill="none" xmlns="http://www.w3.org/2000/svg">
<path d="M32.7749 64.4277C31.194 64.6523 29.5763 64.7696 27.9302 64.7696C21.9089 64.7696 16.2678 63.2121 11.4189 60.4974C12.1853 57.7725 13.6598 55.3504 15.6253 53.3989C15.5417 53.4818 15.4586 53.5651 15.3769 53.6496H35.6253L32.7749 64.4277Z" fill="#E9E3D5"/>
<path d="M44.4414 60.4973C43.7311 57.9716 42.4074 55.7517 40.7834 53.9673C39.7285 52.8352 38.6352 51.8764 37.2531 51.0338C37.1583 50.9679 36.6922 50.6972 36.5424 50.6133C29.4992 46.6563 20.7437 48.0927 15.377 53.6495C20.0262 55.4751 25.0534 56.3088 30.1033 56.0856C30.2919 56.1321 30.4692 56.1526 30.6376 56.1526C31.818 56.1526 32.7751 57.0696 32.7751 58.2006V64.4276C36.9765 63.8305 40.9183 62.4699 44.4414 60.4973Z" fill="#D3CDBF"/>
<path d="M40.5063 62.3722C39.3844 62.8195 38.2312 63.2088 37.0503 63.5363V56.1528C38.7774 57.8267 40.0063 59.9734 40.5063 62.3722Z" fill="#A19B8D"/>
<path d="M18.81 56.1528V63.5363C17.6291 63.209 16.4759 62.8195 15.354 62.3722C15.854 59.9734 17.0828 57.8267 18.81 56.1528Z" fill="#B6B0A2"/>
<path d="M28.5003 60.3174C29.0905 60.3174 29.569 59.8589 29.569 59.2934C29.569 58.728 29.0905 58.2695 28.5003 58.2695C27.9101 58.2695 27.4316 58.728 27.4316 59.2934C27.4316 59.8589 27.9101 60.3174 28.5003 60.3174Z" fill="#3E4954"/>
<path d="M28.5003 64.413C29.0905 64.413 29.569 63.9546 29.569 63.3891C29.569 62.8237 29.0905 62.3652 28.5003 62.3652C27.9101 62.3652 27.4316 62.8237 27.4316 63.3891C27.4316 63.9546 27.9101 64.413 28.5003 64.413Z" fill="#3E4954"/>
<path d="M48.45 33.9352C48.45 23.3507 39.4884 12.0903 28.5 12.0903C19.3864 12.0903 11.7006 19.8136 9.31569 28.4576C8.44386 28.0326 7.45788 27.7913 6.41251 27.7913C2.87102 27.7913 0 30.5419 0 33.9352C0 37.3284 2.87088 40.079 6.41251 40.079C6.59617 40.079 6.77744 40.0699 6.95717 40.0554C7.13592 43.5729 9.10029 46.9211 12.5431 48.8767C22.3388 54.4403 34.6612 54.4403 44.4569 48.8767C49.9549 45.7539 51.6469 39.1345 48.45 33.9352Z" fill="#D9D9D9"/>
<path d="M50.5877 27.7915C49.5417 27.7915 48.5552 28.0329 47.6829 28.4586C46.1029 22.7302 42.1974 17.4163 37.0999 14.4766C37.0999 14.4766 42.6001 20.6935 42.6001 32.5708C42.6001 36.2022 40.5715 39.7048 37.0008 41.7327C28.0056 46.8415 16.8805 47.2583 7.53711 42.9847C8.37425 45.3629 10.079 47.4771 12.5434 48.8767C22.3391 54.4404 34.6615 54.4404 44.4571 48.8767C47.916 46.9122 49.8669 43.5637 50.0434 40.0555C50.223 40.0701 50.4041 40.0792 50.5877 40.0792C54.1292 40.0792 57.0002 37.3286 57.0002 33.9353C57.0002 30.5421 54.1292 27.7915 50.5877 27.7915Z" fill="#EEEEEE"/>
<path d="M6.41289 35.9841C7.59341 35.9841 8.5504 35.0672 8.5504 33.9361C8.5504 32.8051 7.59341 31.8882 6.41289 31.8882C5.23238 31.8882 4.27539 32.8051 4.27539 33.9361C4.27539 35.0672 5.23238 35.9841 6.41289 35.9841Z" fill="#EEEEEE"/>
<path d="M50.5877 35.9836C51.7682 35.9836 52.7252 35.0667 52.7252 33.9357C52.7252 32.8046 51.7682 31.8877 50.5877 31.8877C49.4072 31.8877 48.4502 32.8046 48.4502 33.9357C48.4502 35.0667 49.4072 35.9836 50.5877 35.9836Z" fill="#A4A4A4"/>
<path d="M9.3156 28.4502C10.7547 29.1516 11.8802 30.3577 12.4385 31.8253C12.6942 32.4976 13.5749 32.728 14.1371 32.257C16.8259 30.0051 18.525 26.6959 18.525 23.0053C18.525 20.7109 17.8679 18.5639 16.7252 16.7261C16.7252 16.7262 8.08614 19.0131 9.3156 28.4502Z" fill="#596775"/>
<path d="M40.2747 16.7261C39.1321 18.5638 38.4749 20.7109 38.4749 23.0053C38.4749 26.6959 40.1738 30.0051 42.8627 32.257C43.4252 32.728 44.3058 32.4976 44.5613 31.8253C45.1193 30.3575 46.2452 29.1516 47.6842 28.4501C48.9138 19.013 40.2747 16.7261 40.2747 16.7261Z" fill="#46525E"/>
<path d="M47.025 7.98682H9.9751V22.5888H47.025V7.98682Z" fill="#E9E3D5"/>
<path d="M46.2413 0C45.2077 0 11.3059 0 10.7588 0C7.17804 0 4.27515 2.78129 4.27515 6.21209C4.27515 9.64289 7.17804 12.4242 10.7588 12.4242C11.0336 12.4242 45.5336 12.4242 46.2413 12.4242C49.8221 12.4242 52.725 9.64289 52.725 6.21209C52.725 2.78129 49.8221 0 46.2413 0Z" fill="#E9E3D5"/>
<path d="M52.7248 6.21203C52.7248 5.13323 52.4374 4.11886 51.9325 3.23486C50.5449 3.5728 49.5185 4.77753 49.5185 6.21203C49.5185 7.94344 48.0483 9.35224 46.241 9.35224H10.7587C9.26148 9.35224 8.00408 10.3357 7.65137 11.6651C8.57402 12.1489 9.63273 12.4242 10.7587 12.4242H17.0999H28.4999C36.361 12.4242 45.5175 12.4242 46.241 12.4242C49.822 12.4241 52.7248 9.64296 52.7248 6.21203Z" fill="#D3CDBF"/>
<path d="M11.6852 6.21239C11.6852 5.64682 11.2067 5.18848 10.6165 5.18848C10.0262 5.18848 9.54785 5.64696 9.54785 6.21239C9.54785 7.91474 10.1661 9.48068 11.197 10.7178H14.4207C12.7883 9.82319 11.6852 8.13954 11.6852 6.21239Z" fill="#D3CDBF"/>
<path d="M47.4527 6.21239C47.4527 5.64682 46.9742 5.18848 46.384 5.18848C45.7938 5.18848 45.3153 5.64696 45.3153 6.21239C45.3153 8.13954 44.2122 9.82319 42.5801 10.7178H45.8038C46.8344 9.48068 47.4527 7.91487 47.4527 6.21239Z" fill="#D3CDBF"/>
<path d="M39.8999 5.18848C39.3096 5.18848 38.8312 5.64696 38.8312 6.21239C38.8312 8.13954 37.7281 9.82319 36.0959 10.7178H39.3197C40.3505 9.48054 40.9688 7.91474 40.9688 6.21239C40.9687 5.64696 40.4902 5.18848 39.8999 5.18848Z" fill="#D3CDBF"/>
<path d="M20.235 6.21239C20.235 5.64682 19.7565 5.18848 19.1663 5.18848C18.5762 5.18848 18.0977 5.64696 18.0977 6.21239C18.0977 7.91474 18.7159 9.48068 19.7468 10.7178H22.9705C21.3382 9.82319 20.235 8.13954 20.235 6.21239Z" fill="#D3CDBF"/>
</svg>
