<svg width="493" height="500" viewBox="0 0 493 500" fill="none" xmlns="http://www.w3.org/2000/svg">
<path d="M246.037 468.44C376.506 468.44 482.272 406.507 482.272 330.11C482.272 253.712 376.506 191.78 246.037 191.78C115.567 191.78 9.80078 253.712 9.80078 330.11C9.80078 406.507 115.567 468.44 246.037 468.44Z" fill="#D8541B"/>
<path d="M110.166 335.7L36.8963 292.79C35.0131 291.69 35.0131 289.9 36.8963 288.79L225.518 178.35C226.576 177.803 227.747 177.518 228.935 177.518C230.122 177.518 231.293 177.803 232.351 178.35L305.66 221.25C307.543 222.36 307.543 224.15 305.66 225.25L116.999 335.7C115.939 336.242 114.769 336.525 113.582 336.525C112.396 336.525 111.225 336.242 110.166 335.7Z" fill="#E0E0E0"/>
<path d="M341.639 213.92L319.178 200.77C318.824 200.587 318.432 200.492 318.034 200.492C317.637 200.492 317.245 200.587 316.89 200.77L294.429 213.92C294.292 213.968 294.174 214.059 294.09 214.179C294.006 214.299 293.961 214.442 293.961 214.59C293.961 214.737 294.006 214.88 294.09 215C294.174 215.12 294.292 215.211 294.429 215.26L316.89 228.41C317.245 228.592 317.637 228.687 318.034 228.687C318.432 228.687 318.824 228.592 319.178 228.41L341.639 215.26C341.776 215.211 341.895 215.12 341.978 215C342.062 214.88 342.107 214.737 342.107 214.59C342.107 214.442 342.062 214.299 341.978 214.179C341.895 214.059 341.776 213.968 341.639 213.92Z" fill="#E0E0E0"/>
<path d="M98.462 371.99C109.261 371.99 118.014 366.864 118.014 360.54C118.014 354.216 109.261 349.09 98.462 349.09C87.6636 349.09 78.9097 354.216 78.9097 360.54C78.9097 366.864 87.6636 371.99 98.462 371.99Z" fill="#E0E0E0"/>
<path d="M206.824 449.38C226.591 449.38 242.615 439.996 242.615 428.42C242.615 416.844 226.591 407.46 206.824 407.46C187.056 407.46 171.032 416.844 171.032 428.42C171.032 439.996 187.056 449.38 206.824 449.38Z" fill="#E0E0E0"/>
<path d="M57.7303 367.61C74.0342 367.61 87.2511 359.869 87.2511 350.32C87.2511 340.771 74.0342 333.03 57.7303 333.03C41.4264 333.03 28.2095 340.771 28.2095 350.32C28.2095 359.869 41.4264 367.61 57.7303 367.61Z" fill="#E0E0E0"/>
<path d="M447.782 324.12L376.159 282.07C375.37 281.549 374.416 281.349 373.487 281.51L372.817 281.9C372.724 282.246 372.748 282.613 372.883 282.944C373.019 283.276 373.259 283.552 373.566 283.73L397.93 298.14L373.625 312.8L348.679 298.06C347.585 297.42 346.441 296.85 345.357 297.49C344.272 298.13 344.538 298.67 345.623 299.31L415.727 341.31L444.144 324.81L447.782 324.12Z" fill="#E0E0E0"/>
<path d="M318.971 224.54L299.428 213.08V205.04L299.014 204.8V198.96L318.971 210.65V224.54Z" fill="#06E124"/>
<path opacity="0.1" d="M318.971 224.54L299.428 213.08V205.04L299.014 204.8V198.96L318.971 210.65V224.54Z" fill="black"/>
<path opacity="0.15" d="M318.971 216.49L311.487 212.11L299.428 205.04V205.88L318.971 217.33V216.49Z" fill="black"/>
<path d="M318.971 224.54L338.405 213.16V205.1L338.927 204.8V198.96L318.971 210.65V224.54Z" fill="#06E124"/>
<path opacity="0.1" d="M338.415 205.1L318.971 216.49V217.33L338.415 205.95V205.1Z" fill="black"/>
<path d="M338.927 198.96L318.971 187.27L299.014 198.96L318.971 210.65L338.927 198.96Z" fill="#06E124"/>
<path opacity="0.4" d="M338.927 198.96L318.971 187.27L299.014 198.96L318.971 210.65L338.927 198.96Z" fill="white"/>
<path d="M328.949 219.19C328.819 219.187 328.695 219.134 328.603 219.041C328.511 218.947 328.458 218.822 328.456 218.69V205.08L308.736 193.54C308.623 193.471 308.542 193.36 308.508 193.231C308.475 193.103 308.493 192.966 308.558 192.85C308.59 192.793 308.633 192.742 308.684 192.702C308.735 192.662 308.794 192.633 308.856 192.616C308.919 192.599 308.984 192.595 309.048 192.605C309.112 192.614 309.173 192.636 309.229 192.67L329.185 204.36C329.261 204.402 329.325 204.464 329.368 204.54C329.411 204.616 329.434 204.702 329.432 204.79V218.69C329.432 218.821 329.381 218.946 329.291 219.04C329.201 219.133 329.078 219.187 328.949 219.19Z" fill="#455A64"/>
<path d="M308.825 219.18C308.694 219.18 308.568 219.127 308.476 219.033C308.384 218.94 308.332 218.812 308.332 218.68V204.79C308.33 204.702 308.352 204.616 308.396 204.54C308.439 204.464 308.502 204.402 308.578 204.36L328.535 192.67C328.59 192.636 328.652 192.614 328.716 192.605C328.78 192.595 328.845 192.599 328.908 192.616C328.97 192.633 329.029 192.662 329.08 192.702C329.131 192.742 329.174 192.793 329.205 192.85C329.27 192.966 329.288 193.103 329.255 193.231C329.222 193.36 329.14 193.471 329.028 193.54L309.308 205.08V218.68C309.308 218.811 309.257 218.936 309.167 219.03C309.077 219.123 308.954 219.177 308.825 219.18Z" fill="#455A64"/>
<path d="M318.803 199.29C318.685 199.289 318.572 199.245 318.483 199.166C318.394 199.087 318.337 198.978 318.32 198.86L308.332 130.74C308.321 130.675 308.323 130.608 308.338 130.544C308.353 130.479 308.38 130.419 308.419 130.365C308.458 130.312 308.507 130.267 308.563 130.234C308.619 130.2 308.681 130.178 308.746 130.17C308.875 130.153 309.006 130.187 309.111 130.265C309.215 130.343 309.286 130.46 309.308 130.59L318.823 195.53L326.711 145.91C326.735 145.78 326.808 145.664 326.915 145.587C327.022 145.511 327.154 145.48 327.283 145.5C327.411 145.522 327.525 145.594 327.6 145.701C327.676 145.808 327.707 145.94 327.687 146.07L319.237 198.87C319.22 198.979 319.169 199.079 319.09 199.155C319.012 199.231 318.911 199.278 318.803 199.29Z" fill="#455A64"/>
<path d="M318.803 199.29C318.739 199.285 318.675 199.267 318.617 199.237C318.56 199.207 318.508 199.166 318.466 199.115C318.424 199.065 318.392 199.007 318.372 198.944C318.352 198.882 318.344 198.815 318.35 198.75L325.163 106.88C325.173 106.746 325.235 106.622 325.334 106.534C325.434 106.446 325.564 106.401 325.696 106.41C325.76 106.415 325.824 106.433 325.881 106.463C325.939 106.493 325.991 106.534 326.033 106.584C326.075 106.634 326.107 106.692 326.127 106.755C326.147 106.818 326.154 106.884 326.149 106.95L319.336 198.83C319.331 198.895 319.313 198.96 319.284 199.018C319.254 199.077 319.213 199.129 319.164 199.172C319.115 199.215 319.057 199.247 318.995 199.267C318.933 199.288 318.868 199.295 318.803 199.29Z" fill="#455A64"/>
<path d="M311.25 132.64C310.706 131.405 309.814 130.362 308.687 129.64C307.822 130.641 307.282 131.887 307.139 133.21C307.175 133.393 307.26 133.562 307.385 133.698C307.511 133.834 307.671 133.932 307.849 133.98C308.328 134.155 308.842 134.212 309.348 134.146C309.854 134.08 310.337 133.893 310.757 133.6C310.915 133.502 311.043 133.363 311.13 133.198C311.217 133.033 311.258 132.847 311.25 132.66V132.64Z" fill="#06E124"/>
<path opacity="0.1" d="M311.25 132.64C310.706 131.405 309.814 130.362 308.687 129.64C307.822 130.641 307.282 131.887 307.139 133.21C307.175 133.393 307.26 133.562 307.385 133.698C307.511 133.834 307.671 133.932 307.849 133.98C308.328 134.155 308.842 134.212 309.348 134.146C309.854 134.08 310.337 133.893 310.757 133.6C310.915 133.502 311.043 133.363 311.13 133.198C311.217 133.033 311.258 132.847 311.25 132.66V132.64Z" fill="black"/>
<path opacity="0.2" d="M311.25 132.64C310.706 131.405 309.814 130.362 308.687 129.64C307.822 130.641 307.282 131.887 307.139 133.21C307.175 133.393 307.26 133.562 307.385 133.698C307.511 133.834 307.671 133.932 307.849 133.98C308.328 134.155 308.842 134.212 309.348 134.146C309.854 134.08 310.337 133.893 310.757 133.6C310.915 133.502 311.043 133.363 311.13 133.198C311.217 133.033 311.258 132.847 311.25 132.66V132.64Z" fill="black"/>
<path d="M318.685 112.16C319.562 118.92 315.441 128.16 308.825 130.66C301.706 129.66 295.455 122.13 294.587 115.37C293.719 108.61 297.18 101.74 304.95 100.71C312.72 99.6797 317.807 105.41 318.685 112.16Z" fill="#06E124"/>
<path opacity="0.2" d="M318.685 112.16C319.562 118.92 315.441 128.16 308.825 130.66C301.706 129.66 295.455 122.13 294.587 115.37C293.719 108.61 297.18 101.74 304.95 100.71C312.72 99.6797 317.807 105.41 318.685 112.16Z" fill="black"/>
<path opacity="0.1" d="M295.553 118.83C295.553 118.83 298.186 125.07 306.163 124.54C313.844 124.02 318.981 114.71 317.995 109.13C318.322 110.105 318.557 111.109 318.695 112.13C319.572 118.89 315.451 128.13 308.835 130.63C302.919 129.78 297.634 124.48 295.494 118.84L295.553 118.83Z" fill="black"/>
<path d="M328.732 148.78C328.714 147.42 328.295 146.097 327.529 144.98C327.194 144.88 324.985 146.74 324.739 147.65C324.699 147.834 324.712 148.025 324.775 148.202C324.837 148.379 324.948 148.534 325.094 148.65C325.47 148.997 325.921 149.25 326.411 149.387C326.901 149.524 327.416 149.542 327.914 149.44C328.098 149.419 328.272 149.346 328.416 149.229C328.561 149.112 328.671 148.957 328.732 148.78Z" fill="#06E124"/>
<path opacity="0.1" d="M328.732 148.78C328.714 147.42 328.295 146.097 327.529 144.98C327.194 144.88 324.985 146.74 324.739 147.65C324.699 147.834 324.712 148.025 324.775 148.202C324.837 148.379 324.948 148.534 325.094 148.65C325.47 148.997 325.921 149.25 326.411 149.387C326.901 149.524 327.416 149.542 327.914 149.44C328.098 149.419 328.272 149.346 328.416 149.229C328.561 149.112 328.671 148.957 328.732 148.78Z" fill="black"/>
<path opacity="0.5" d="M328.732 148.78C328.714 147.42 328.295 146.097 327.529 144.98C327.194 144.88 324.985 146.74 324.739 147.65C324.699 147.834 324.712 148.025 324.775 148.202C324.837 148.379 324.948 148.534 325.094 148.65C325.47 148.997 325.921 149.25 326.411 149.387C326.901 149.524 327.416 149.542 327.914 149.44C328.098 149.419 328.272 149.346 328.416 149.229C328.561 149.112 328.671 148.957 328.732 148.78Z" fill="white"/>
<path d="M343.463 132.87C341.668 139.44 334.323 146.29 327.253 145.99C321.091 142.22 318.231 132.84 320.026 126.27C321.82 119.7 327.677 114.76 335.22 116.88C342.763 119 345.257 126.31 343.463 132.87Z" fill="#06E124"/>
<path opacity="0.5" d="M343.463 132.87C341.668 139.44 334.323 146.29 327.253 145.99C321.091 142.22 318.231 132.84 320.026 126.27C321.82 119.7 327.677 114.76 335.22 116.88C342.763 119 345.257 126.31 343.463 132.87Z" fill="white"/>
<path opacity="0.05" d="M319.602 129.84C319.602 129.84 319.602 136.63 327.164 139.3C334.431 141.87 342.714 135.3 343.985 129.8C343.914 130.838 343.739 131.867 343.463 132.87C341.668 139.44 334.323 146.29 327.253 145.99C322.146 142.86 319.365 135.89 319.513 129.85L319.602 129.84Z" fill="black"/>
<path d="M327.539 109.41C327.293 108.074 326.662 106.842 325.725 105.87C324.651 106.644 323.841 107.738 323.408 109C323.406 109.186 323.453 109.368 323.543 109.53C323.633 109.691 323.763 109.826 323.92 109.92C324.353 110.209 324.847 110.388 325.362 110.442C325.877 110.496 326.397 110.423 326.878 110.23C327.054 110.173 327.211 110.07 327.334 109.932C327.457 109.793 327.542 109.623 327.579 109.44L327.539 109.41Z" fill="#06E124"/>
<path opacity="0.1" d="M327.539 109.41C327.293 108.074 326.662 106.842 325.725 105.87C324.651 106.644 323.841 107.738 323.408 109C323.406 109.186 323.453 109.368 323.543 109.53C323.633 109.691 323.763 109.826 323.92 109.92C324.353 110.209 324.847 110.388 325.362 110.442C325.877 110.496 326.397 110.423 326.878 110.23C327.054 110.173 327.211 110.07 327.334 109.932C327.457 109.793 327.542 109.623 327.579 109.44L327.539 109.41Z" fill="black"/>
<path d="M339.46 91.2499C338.76 98.0199 332.637 106.02 325.656 106.91C318.961 104.23 314.612 95.4599 315.313 88.6899C316.013 81.9199 320.923 75.9999 328.712 76.8699C336.502 77.7399 340.17 84.4699 339.46 91.2499Z" fill="#D8541B"/>
<path opacity="0.05" d="M315.431 92.2801C315.431 92.2801 316.555 98.9701 324.433 100.28C332.025 101.59 339.115 93.7401 339.47 88.0801C339.573 89.1174 339.573 90.1627 339.47 91.2001C338.77 97.9701 332.647 105.97 325.666 106.86C320.124 104.64 316.18 98.2301 315.392 92.2501L315.431 92.2801Z" fill="black"/>
<path d="M55.0385 295.91C54.5366 295.57 54.1464 295.085 53.918 294.519C53.6896 293.952 53.6334 293.329 53.7567 292.73L84.5593 154.45C84.9361 153.115 85.7722 151.962 86.9159 151.2L270.164 43.8898C270.724 43.5881 271.346 43.4245 271.98 43.4124C272.614 43.4002 273.241 43.5398 273.812 43.8198C274.312 44.1617 274.701 44.6464 274.929 45.2124C275.157 45.7785 275.215 46.4006 275.094 46.9998L244.311 185.28C243.94 186.617 243.102 187.772 241.955 188.53L58.6867 295.85C58.1253 296.148 57.5031 296.308 56.8696 296.319C56.2362 296.329 55.6091 296.189 55.0385 295.91Z" fill="#06E124"/>
<path opacity="0.8" d="M55.0385 295.91C54.5366 295.57 54.1464 295.085 53.918 294.519C53.6896 293.952 53.6334 293.329 53.7567 292.73L84.5593 154.45C84.9361 153.115 85.7722 151.962 86.9159 151.2L270.164 43.8898C270.724 43.5881 271.346 43.4245 271.98 43.4124C272.614 43.4002 273.241 43.5398 273.812 43.8198C274.312 44.1617 274.701 44.6464 274.929 45.2124C275.157 45.7785 275.215 46.4006 275.094 46.9998L244.311 185.28C243.94 186.617 243.102 187.772 241.955 188.53L58.6867 295.85C58.1253 296.148 57.5031 296.308 56.8696 296.319C56.2362 296.329 55.6091 296.189 55.0385 295.91Z" fill="white"/>
<path d="M88.0892 156.52L57.2865 294.8C57.0203 295.98 57.6514 296.45 58.6867 295.85L241.954 188.53C243.102 187.772 243.94 186.617 244.311 185.28L275.094 46.9999C275.36 45.8099 274.729 45.3399 273.694 45.9999L90.4457 153.27C89.2996 154.03 88.4627 155.184 88.0892 156.52Z" fill="#06E124"/>
<path opacity="0.6" d="M88.0892 156.52L57.2865 294.8C57.0203 295.98 57.6514 296.45 58.6867 295.85L241.954 188.53C243.102 187.772 243.94 186.617 244.311 185.28L275.094 46.9999C275.36 45.8099 274.729 45.3399 273.694 45.9999L90.4457 153.27C89.2996 154.03 88.4627 155.184 88.0892 156.52Z" fill="white"/>
<path opacity="0.05" d="M88.0892 156.52L57.2865 294.8C57.0203 295.98 57.6514 296.45 58.6867 295.85L241.954 188.53C243.102 187.772 243.94 186.617 244.311 185.28L275.094 46.9999C275.36 45.8099 274.729 45.3399 273.694 45.9999L90.4457 153.27C89.2996 154.03 88.4627 155.184 88.0892 156.52Z" fill="black"/>
<path d="M277.362 45.8896C276.791 45.6096 276.164 45.47 275.53 45.4822C274.896 45.4943 274.274 45.6579 273.714 45.9596L90.446 153.27C89.9134 153.619 89.4849 154.109 89.2068 154.687C88.9288 155.265 88.8118 155.909 88.8684 156.55L112.966 327.83C113.086 328.477 113.331 329.093 113.686 329.644C114.041 330.195 114.5 330.669 115.037 331.04C115.606 331.32 116.232 331.459 116.864 331.447C117.497 331.435 118.117 331.271 118.675 330.97L301.943 223.66C302.477 223.312 302.907 222.822 303.185 222.244C303.463 221.665 303.579 221.02 303.521 220.38L279.433 49.0996C279.313 48.4526 279.068 47.836 278.713 47.2852C278.358 46.7343 277.899 46.2601 277.362 45.8896Z" fill="#06E124"/>
<path opacity="0.8" d="M277.362 45.8896C276.791 45.6096 276.164 45.47 275.53 45.4822C274.896 45.4943 274.274 45.6579 273.714 45.9596L90.446 153.27C89.9134 153.619 89.4849 154.109 89.2068 154.687C88.9288 155.265 88.8118 155.909 88.8684 156.55L112.966 327.83C113.086 328.477 113.331 329.093 113.686 329.644C114.041 330.195 114.5 330.669 115.037 331.04C115.606 331.32 116.232 331.459 116.864 331.447C117.497 331.435 118.117 331.271 118.675 330.97L301.943 223.66C302.477 223.312 302.907 222.822 303.185 222.244C303.463 221.665 303.579 221.02 303.521 220.38L279.433 49.0996C279.313 48.4526 279.068 47.836 278.713 47.2852C278.358 46.7343 277.899 46.2601 277.362 45.8896Z" fill="white"/>
<path d="M92.3982 158.62L116.486 329.89C116.492 330.144 116.568 330.393 116.704 330.607C116.839 330.821 117.031 330.994 117.257 331.105C117.483 331.216 117.734 331.263 117.985 331.239C118.235 331.215 118.474 331.122 118.675 330.97L301.943 223.66C302.477 223.312 302.907 222.822 303.185 222.244C303.463 221.666 303.579 221.021 303.521 220.38L279.433 49.0997C279.43 48.8432 279.357 48.5926 279.223 48.3754C279.088 48.1582 278.897 47.983 278.671 47.8691C278.444 47.7553 278.191 47.7072 277.939 47.7302C277.687 47.7533 277.446 47.8465 277.244 47.9997L93.9758 155.34C93.4416 155.687 93.0119 156.177 92.7336 156.755C92.4554 157.334 92.3394 157.979 92.3982 158.62Z" fill="#06E124"/>
<path opacity="0.95" d="M92.3982 158.62L116.486 329.89C116.492 330.144 116.568 330.393 116.704 330.607C116.839 330.821 117.031 330.994 117.257 331.105C117.483 331.216 117.734 331.263 117.985 331.239C118.235 331.215 118.474 331.122 118.675 330.97L301.943 223.66C302.477 223.312 302.907 222.822 303.185 222.244C303.463 221.666 303.579 221.021 303.521 220.38L279.433 49.0997C279.43 48.8432 279.357 48.5926 279.223 48.3754C279.088 48.1582 278.897 47.983 278.671 47.8691C278.444 47.7553 278.191 47.7072 277.939 47.7302C277.687 47.7533 277.446 47.8465 277.244 47.9997L93.9758 155.34C93.4416 155.687 93.0119 156.177 92.7336 156.755C92.4554 157.334 92.3394 157.979 92.3982 158.62Z" fill="white"/>
<path d="M105.758 276.55L84.2339 289.15C83.7984 289.056 83.3481 289.056 82.9126 289.15L57.533 294.15H57.4541L104.358 266.67L105.758 276.55Z" fill="#06E124"/>
<path opacity="0.5" d="M105.758 276.55L84.2339 289.15C83.7984 289.056 83.3481 289.056 82.9126 289.15L57.533 294.15H57.4541L104.358 266.67L105.758 276.55Z" fill="white"/>
<path opacity="0.2" d="M105.758 276.55L84.2339 289.15C83.7984 289.056 83.3481 289.056 82.9126 289.15L57.533 294.15H57.4541L104.358 266.67L105.758 276.55Z" fill="black"/>
<path d="M112.779 326.49L86.3343 290.36C85.833 289.728 85.1397 289.281 84.3623 289.09L105.788 276.55L112.779 326.49Z" fill="#06E124"/>
<path opacity="0.6" d="M112.779 326.49L86.3343 290.36C85.833 289.728 85.1397 289.281 84.3623 289.09L105.788 276.55L112.779 326.49Z" fill="white"/>
<path opacity="0.1" d="M112.779 326.49L86.3343 290.36C85.833 289.728 85.1397 289.281 84.3623 289.09L105.788 276.55L112.779 326.49Z" fill="black"/>
<path d="M111.941 328.18L86.3637 294.47C85.9407 293.962 85.4042 293.563 84.7988 293.308C84.1935 293.052 83.5367 292.946 82.8831 293L58.9529 296.51C57.5974 296.657 56.2286 296.407 55.0089 295.79C54.0229 295.22 54.2004 294.57 55.3836 294.34L82.9028 289C83.5407 288.911 84.1903 288.989 84.7906 289.225C85.3908 289.461 85.922 289.848 86.3341 290.35L115.5 330.21C116.22 331.21 116.003 331.52 115.037 330.95C113.865 330.201 112.819 329.266 111.941 328.18Z" fill="#06E124"/>
<path opacity="0.8" d="M111.941 328.18L86.3637 294.47C85.9407 293.962 85.4042 293.563 84.7988 293.308C84.1935 293.052 83.5367 292.946 82.8831 293L58.9529 296.51C57.5974 296.657 56.2286 296.407 55.0089 295.79C54.0229 295.22 54.2004 294.57 55.3836 294.34L82.9028 289C83.5407 288.911 84.1903 288.989 84.7906 289.225C85.3908 289.461 85.922 289.848 86.3341 290.35L115.5 330.21C116.22 331.21 116.003 331.52 115.037 330.95C113.865 330.201 112.819 329.266 111.941 328.18Z" fill="white"/>
<path d="M275.173 46.3197C275.171 45.823 275.047 45.3346 274.813 44.8982C274.579 44.4619 274.242 44.0913 273.832 43.8197C273.26 43.5451 272.632 43.4085 272 43.4207C271.367 43.4328 270.745 43.5934 270.184 43.8897L86.9157 151.21C86.3587 151.563 85.8734 152.021 85.486 152.56C85.0348 153.119 84.6995 153.766 84.5 154.46L80.2109 174L83.7408 176.06L270.765 66.5297L275.094 46.9997C275.141 46.773 275.161 46.5413 275.153 46.3098L275.173 46.3197Z" fill="#06E124"/>
<path opacity="0.6" d="M275.094 46.9999C275.36 45.8099 274.729 45.3399 273.694 45.9999L90.446 153.27C89.2999 154.03 88.463 155.184 88.0895 156.52L83.7412 176.05L270.766 66.5299L275.094 46.9999Z" fill="black"/>
<path opacity="0.5" d="M89.0061 154.63C88.5745 155.189 88.2623 155.832 88.0891 156.52L83.7408 176.05L80.2109 174L84.5493 154.47C84.7488 153.776 85.0841 153.13 85.5353 152.57L89.0061 154.63Z" fill="black"/>
<path opacity="0.2" d="M275.173 46.3196C275.084 45.6596 274.522 45.4896 273.714 45.9596L90.4459 153.27C89.8832 153.623 89.3942 154.085 89.0063 154.63L85.4863 152.56C85.8737 152.021 86.359 151.563 86.916 151.21L270.164 43.8896C270.725 43.5902 271.347 43.4279 271.98 43.4158C272.613 43.4036 273.241 43.5419 273.812 43.8196C274.226 44.0888 274.567 44.4584 274.805 44.8948C275.042 45.3313 275.169 45.821 275.173 46.3196Z" fill="black"/>
<path d="M279.649 50.7398L279.422 49.0998C279.422 49.0298 279.422 48.9498 279.422 48.8698C279.422 48.7898 279.422 48.8698 279.422 48.7998C279.134 47.6225 278.433 46.5919 277.45 45.8998C276.88 45.6198 276.252 45.4803 275.618 45.4924C274.984 45.5046 274.362 45.6682 273.802 45.9698L90.4457 153.27C89.8886 153.62 89.4487 154.132 89.1836 154.74C88.912 155.301 88.8026 155.928 88.8681 156.55L92.3289 181.09L95.8588 183.16L282.883 73.6598L279.649 50.7398Z" fill="#06E124"/>
<path opacity="0.4" d="M282.883 73.6598L95.8587 183.16L92.3978 158.62C92.3191 157.998 92.4184 157.366 92.6838 156.8C92.9551 156.199 93.3938 155.691 93.9458 155.34L277.243 47.9998C277.416 47.8635 277.618 47.7724 277.833 47.7344C278.049 47.6964 278.27 47.7127 278.477 47.7818C278.685 47.851 278.872 47.9709 279.024 48.131C279.175 48.2911 279.284 48.4864 279.343 48.6998V48.7698V48.8398C279.368 48.9185 279.388 48.9987 279.403 49.0798L279.629 50.7098L282.883 73.6598Z" fill="black"/>
<path opacity="0.5" d="M95.8588 183.16L92.3289 181.09L88.8681 156.55C88.8026 155.928 88.912 155.301 89.1836 154.74L92.6839 156.8C92.4078 157.363 92.2982 157.995 92.3684 158.62L95.8588 183.16Z" fill="black"/>
<path opacity="0.3" d="M279.364 48.7996C279.314 48.5777 279.21 48.372 279.061 48.2014C278.913 48.0308 278.724 47.9008 278.513 47.8231C278.302 47.7455 278.076 47.7228 277.854 47.7572C277.632 47.7915 277.422 47.8817 277.244 48.0196L93.9758 155.34C93.4081 155.681 92.9573 156.19 92.6842 156.8L89.1543 154.74C89.4225 154.134 89.8617 153.622 90.4164 153.27L273.714 45.9996C274.274 45.6979 274.896 45.5344 275.53 45.5222C276.163 45.5101 276.791 45.6496 277.362 45.9296C278.355 46.6037 279.068 47.6256 279.364 48.7996Z" fill="black"/>
<g opacity="0.2">
<path d="M109.209 158.82C109.123 157.658 109.353 156.494 109.874 155.455C110.396 154.416 111.189 153.543 112.167 152.93C114.139 151.79 115.934 152.58 116.23 154.69C116.311 155.851 116.078 157.011 115.557 158.048C115.036 159.084 114.246 159.956 113.272 160.57C111.319 161.71 109.505 160.93 109.209 158.82Z" fill="black"/>
<path d="M133.928 144.34C133.847 143.179 134.08 142.019 134.601 140.982C135.122 139.946 135.912 139.074 136.886 138.46C138.858 137.32 140.653 138.1 140.949 140.21C141.032 141.372 140.8 142.535 140.279 143.573C139.758 144.611 138.966 145.485 137.991 146.1C136.068 147.24 134.224 146.45 133.928 144.34Z" fill="black"/>
<path d="M158.608 129.89C158.525 128.728 158.756 127.565 159.278 126.527C159.799 125.489 160.59 124.615 161.566 124C163.538 122.86 165.332 123.65 165.628 125.75C165.71 126.912 165.478 128.074 164.957 129.112C164.436 130.15 163.645 131.024 162.67 131.64C160.718 132.78 158.914 132 158.608 129.89Z" fill="black"/>
<path d="M208.046 101C207.964 99.8383 208.196 98.6758 208.717 97.6379C209.238 96.5999 210.029 95.726 211.004 95.1101C212.976 93.9701 214.77 94.7601 215.066 96.8601C215.151 98.0223 214.919 99.1856 214.398 100.224C213.877 101.262 213.085 102.136 212.108 102.75C210.117 103.86 208.302 103.07 208.046 101Z" fill="black"/>
<path d="M232.696 86.4902C232.612 85.3296 232.844 84.1679 233.365 83.1313C233.887 82.0947 234.678 81.2228 235.654 80.6102C237.626 79.4702 239.42 80.2502 239.716 82.3602C239.799 83.5207 239.567 84.6819 239.045 85.7183C238.524 86.7547 237.733 87.6268 236.758 88.2402C234.845 89.3902 233.031 88.6002 232.696 86.4902Z" fill="black"/>
<path d="M257.415 72C257.332 70.8393 257.563 69.6777 258.085 68.641C258.606 67.6044 259.398 66.7325 260.373 66.12C262.345 64.98 264.14 65.76 264.435 67.87C264.518 69.0318 264.285 70.1943 263.764 71.2322C263.243 72.2702 262.452 73.1441 261.477 73.76C259.525 74.93 257.711 74.14 257.415 72Z" fill="black"/>
</g>
<path d="M116.683 151.27C116.687 151.994 116.624 152.717 116.496 153.43C116.43 153.798 116.341 154.163 116.23 154.52C115.798 156.194 114.736 157.631 113.272 158.52C112.324 159.082 111.244 159.373 110.146 159.36C109.859 159.36 109.572 159.34 109.288 159.3C109.288 159.15 109.219 159 109.19 158.83C109.084 157.848 109.244 156.856 109.653 155.96C110.33 156.065 111.023 155.942 111.625 155.61C112.116 155.25 112.521 154.783 112.809 154.242C113.098 153.702 113.262 153.103 113.291 152.49C113.296 152.44 113.296 152.39 113.291 152.34C113.291 152.03 113.291 151.68 113.291 151.28C113.142 147.853 111.996 144.547 109.998 141.78C109.309 140.786 108.522 139.864 107.651 139.03C106.939 138.345 106.151 137.744 105.305 137.24C103.5 136.24 101.844 135.96 100.72 136.61C99.5958 137.26 98.9647 138.82 98.9647 140.95C98.973 141.96 99.0954 142.967 99.3295 143.95L96.3715 145.68L96.3124 145.48C95.8953 144.02 95.6763 142.509 95.6616 140.99C95.6616 137.6 96.8744 134.99 99.0732 133.74C101.272 132.49 104.072 132.68 106.961 134.37C108.311 135.19 109.539 136.2 110.609 137.37C111.423 138.25 112.168 139.193 112.838 140.19C115.142 143.432 116.477 147.278 116.683 151.27Z" fill="#37474F"/>
<path d="M141.412 136.79C141.411 137.517 141.348 138.243 141.225 138.96C141.159 139.335 141.07 139.706 140.958 140.07C140.527 141.745 139.465 143.181 138 144.07C137.051 144.626 135.971 144.913 134.875 144.9C134.595 144.903 134.314 144.886 134.037 144.85C133.99 144.696 133.954 144.539 133.928 144.38C133.819 143.396 133.976 142.4 134.382 141.5C135.058 141.61 135.751 141.491 136.354 141.16C136.852 140.797 137.263 140.324 137.555 139.777C137.847 139.229 138.013 138.622 138.04 138C138.035 137.95 138.035 137.9 138.04 137.85C138.082 137.495 138.102 137.137 138.099 136.78C137.949 133.355 136.799 130.052 134.796 127.29C134.115 126.292 133.332 125.37 132.459 124.54C131.743 123.852 130.952 123.248 130.102 122.74C128.308 121.74 126.642 121.47 125.518 122.12C124.394 122.77 123.762 124.32 123.762 126.46C123.773 127.455 123.899 128.445 124.137 129.41L121.179 131.14L121.12 130.94C120.703 129.484 120.484 127.976 120.469 126.46C120.469 123.07 121.682 120.46 123.891 119.21C126.099 117.96 128.89 118.14 131.779 119.83C133.129 120.649 134.357 121.659 135.427 122.83C136.241 123.706 136.986 124.646 137.655 125.64C139.942 128.911 141.247 132.783 141.412 136.79Z" fill="#37474F"/>
<path d="M166.091 122.34C166.09 123.067 166.027 123.793 165.904 124.51C165.838 124.881 165.749 125.249 165.638 125.61C165.202 127.282 164.141 128.717 162.68 129.61C161.484 130.297 160.098 130.567 158.736 130.38C158.687 130.226 158.651 130.069 158.627 129.91C158.523 128.929 158.68 127.938 159.081 127.04C159.758 127.147 160.452 127.024 161.053 126.69C161.548 126.333 161.956 125.867 162.246 125.326C162.537 124.785 162.702 124.185 162.729 123.57C162.729 123.57 162.729 123.47 162.729 123.42C162.771 123.068 162.791 122.714 162.788 122.36C162.64 118.934 161.49 115.631 159.485 112.87C158.802 111.871 158.019 110.946 157.148 110.11C156.437 109.417 155.65 108.809 154.802 108.3C153.007 107.3 151.341 107.03 150.227 107.67C149.113 108.31 148.462 109.87 148.462 112.01C148.47 113.021 148.592 114.027 148.827 115.01L145.869 116.75V116.54C145.449 115.08 145.226 113.57 145.208 112.05C145.208 108.67 146.421 106.05 148.629 104.8C150.838 103.55 153.628 103.74 156.517 105.43C157.868 106.249 159.097 107.259 160.166 108.43C160.988 109.305 161.736 110.248 162.404 111.25C164.652 114.513 165.932 118.362 166.091 122.34Z" fill="#37474F"/>
<path d="M215.49 93.46C215.496 94.1873 215.437 94.9136 215.313 95.63C215.246 96.0083 215.157 96.3823 215.047 96.75C214.605 98.42 213.546 99.8529 212.089 100.75C211.14 101.298 210.065 101.581 208.973 101.57C208.686 101.57 208.399 101.55 208.115 101.51C208.063 101.347 208.026 101.18 208.006 101.01C207.901 100.041 208.051 99.061 208.44 98.17C209.117 98.278 209.809 98.1586 210.412 97.83C210.909 97.4661 211.318 96.9926 211.608 96.4453C211.899 95.8979 212.063 95.2909 212.089 94.67C212.089 94.67 212.089 94.59 212.089 94.55C212.127 94.2014 212.144 93.8507 212.138 93.5C211.986 90.0611 210.833 86.7449 208.825 83.97C208.135 82.9734 207.345 82.0519 206.468 81.22C205.763 80.5478 204.986 79.9575 204.151 79.46C202.347 78.46 200.69 78.19 199.566 78.83C198.442 79.47 197.811 81.03 197.811 83.17C197.833 84.1244 197.958 85.0736 198.186 86L195.228 87.74V87.58C194.812 86.12 194.593 84.6096 194.577 83.09C194.577 79.7 195.79 77.09 197.999 75.84C200.207 74.59 202.988 74.77 205.887 76.47C207.224 77.2713 208.442 78.2612 209.505 79.41C210.327 80.2851 211.076 81.2284 211.743 82.23C214.043 85.5238 215.345 89.4266 215.49 93.46Z" fill="#37474F"/>
<path d="M240.219 78.9997C240.223 79.7273 240.16 80.4538 240.032 81.1697C239.966 81.5483 239.877 81.9224 239.765 82.2897C239.327 83.9611 238.267 85.395 236.807 86.2897C235.857 86.8447 234.778 87.1313 233.682 87.1197C233.395 87.1193 233.108 87.0992 232.824 87.0597C232.824 86.8997 232.745 86.7297 232.716 86.5497C232.608 85.583 232.761 84.6048 233.159 83.7197C233.837 83.8247 234.529 83.7018 235.131 83.3697C235.628 83.0058 236.037 82.5323 236.327 81.985C236.618 81.4376 236.782 80.8306 236.807 80.2097C236.807 80.2097 236.807 80.1397 236.807 80.0997C236.807 79.7897 236.857 79.4497 236.857 79.0397C236.706 75.6021 235.549 72.2881 233.534 69.5197C232.844 68.5226 232.058 67.598 231.187 66.7597C230.482 66.0875 229.705 65.4972 228.87 64.9997C227.066 63.9997 225.409 63.7297 224.285 64.3797C223.161 65.0297 222.53 66.5797 222.53 68.7197C222.539 69.6969 222.658 70.67 222.885 71.6197L219.927 73.3697V73.2097C219.511 71.7498 219.292 70.2393 219.276 68.7197C219.276 65.3297 220.489 62.7197 222.688 61.4697C224.887 60.2197 227.687 60.3997 230.576 62.0897C231.91 62.9118 233.121 63.9218 234.175 65.0897C235.003 65.9562 235.752 66.8966 236.413 67.8997C238.707 71.152 240.028 75.0057 240.219 78.9997Z" fill="#37474F"/>
<path d="M264.899 64.5198C264.902 65.2508 264.839 65.9805 264.711 66.6998C264.644 67.0681 264.555 67.432 264.445 67.7898C264.008 69.4617 262.947 70.8959 261.487 71.7898C260.283 72.4554 258.905 72.7245 257.543 72.5598C257.543 72.3998 257.464 72.2198 257.435 72.0398C257.329 71.0742 257.479 70.0975 257.869 69.2098C258.545 69.3209 259.238 69.2013 259.841 68.8698C260.336 68.5054 260.743 68.0316 261.032 67.4842C261.321 66.9368 261.483 66.3301 261.507 65.7098C261.507 65.7098 261.507 65.6398 261.507 65.5998C261.549 65.2448 261.569 64.8874 261.566 64.5298C261.427 61.0918 260.28 57.7739 258.273 54.9998C257.579 54.003 256.786 53.0815 255.906 52.2498C255.209 51.5725 254.434 50.9817 253.599 50.4898C251.795 49.4398 250.138 49.2198 249.014 49.8698C247.89 50.5198 247.259 52.0698 247.259 54.1998C247.268 55.1804 247.387 56.1567 247.614 57.1098L244.656 58.8498V58.6898C244.24 57.2298 244.021 55.7194 244.005 54.1998C244.005 50.8098 245.218 48.1998 247.417 46.9498C249.616 45.6998 252.416 45.8798 255.305 47.5798C256.64 48.3758 257.856 49.3626 258.914 50.5098C259.739 51.3883 260.491 52.3349 261.162 53.3398C263.445 56.6228 264.743 60.5055 264.899 64.5198Z" fill="#37474F"/>
<path d="M99.9409 212L286.956 102.59L282.883 73.6597L95.8589 183.08L99.9409 212Z" fill="#06E124"/>
<g opacity="0.65">
<path d="M99.9409 212L286.956 102.59L282.883 73.6597L95.8589 183.08L99.9409 212Z" fill="white"/>
</g>
<path d="M114.682 219C114.909 220.59 116.368 221.14 117.936 220.22L131.976 212C132.756 211.537 133.396 210.867 133.825 210.061C134.255 209.255 134.458 208.345 134.412 207.43C134.195 205.84 132.736 205.29 131.158 206.21L117.127 214.43C116.346 214.891 115.704 215.561 115.273 216.367C114.841 217.173 114.637 218.084 114.682 219Z" fill="#06E124"/>
<path d="M138.356 205.16C138.582 206.76 140.032 207.31 141.609 206.39L155.65 198.17C156.428 197.708 157.067 197.039 157.496 196.235C157.926 195.431 158.13 194.523 158.086 193.61C157.859 192.02 156.399 191.47 154.832 192.39L140.801 200.6C140.021 201.06 139.38 201.729 138.949 202.533C138.518 203.337 138.313 204.246 138.356 205.16Z" fill="#06E124"/>
<path d="M162.029 191.3C162.246 192.9 163.706 193.45 165.283 192.52L179.314 184.31C180.094 183.849 180.735 183.181 181.166 182.377C181.597 181.573 181.802 180.664 181.759 179.75C181.532 178.15 180.073 177.61 178.505 178.53L164.465 186.74C163.686 187.201 163.048 187.87 162.619 188.674C162.189 189.478 161.985 190.386 162.029 191.3Z" fill="#06E124"/>
<path d="M185.694 177.44C185.92 179.04 187.38 179.58 188.957 178.66L202.988 170.45C203.768 169.99 204.409 169.321 204.84 168.517C205.271 167.713 205.476 166.804 205.433 165.89C205.207 164.29 203.747 163.74 202.17 164.67L188.139 172.88C187.359 173.34 186.718 174.009 186.287 174.813C185.856 175.617 185.651 176.526 185.694 177.44Z" fill="#06E124"/>
<path d="M209.367 163.58C209.594 165.18 211.053 165.72 212.621 164.8L226.662 156.59C227.442 156.129 228.082 155.461 228.514 154.657C228.945 153.853 229.15 152.944 229.107 152.03C228.88 150.43 227.421 149.88 225.843 150.8L211.813 159C211.03 159.462 210.387 160.133 209.956 160.941C209.524 161.749 209.321 162.662 209.367 163.58Z" fill="#06E124"/>
<path d="M233.041 149.72C233.268 151.31 234.727 151.86 236.295 150.94L250.336 142.73C251.115 142.267 251.755 141.597 252.184 140.791C252.614 139.985 252.817 139.075 252.771 138.16C252.554 136.57 251.095 136.02 249.517 136.94L235.487 145.16C234.706 145.62 234.066 146.289 233.635 147.093C233.204 147.897 232.998 148.805 233.041 149.72Z" fill="#06E124"/>
<path d="M256.715 135.85C256.942 137.45 258.391 138 259.969 137.08L274.01 128.86C274.788 128.398 275.426 127.729 275.856 126.925C276.285 126.121 276.489 125.213 276.445 124.3C276.218 122.71 274.759 122.16 273.191 123.08L259.16 131.29C258.38 131.75 257.74 132.419 257.309 133.223C256.877 134.027 256.672 134.936 256.715 135.85Z" fill="#06E124"/>
<g opacity="0.17">
<path d="M292.014 219.19C291.833 219.207 291.652 219.156 291.505 219.047C291.358 218.939 291.255 218.78 291.215 218.6L279.787 137.6C279.78 137.515 279.791 137.429 279.819 137.349C279.848 137.269 279.893 137.195 279.952 137.135C280.011 137.074 280.083 137.027 280.162 136.996C280.24 136.966 280.325 136.954 280.409 136.96C280.588 136.944 280.768 136.995 280.913 137.103C281.058 137.212 281.16 137.371 281.197 137.55L292.635 218.55C292.642 218.635 292.631 218.721 292.603 218.801C292.574 218.881 292.529 218.955 292.47 219.015C292.411 219.076 292.34 219.123 292.261 219.154C292.182 219.184 292.098 219.196 292.014 219.19Z" fill="#06E124"/>
<path d="M268.33 233.06C268.149 233.075 267.97 233.023 267.823 232.915C267.677 232.807 267.573 232.649 267.531 232.47L256.104 151.47C256.097 151.385 256.108 151.299 256.136 151.218C256.164 151.137 256.21 151.063 256.268 151.002C256.327 150.94 256.398 150.892 256.477 150.861C256.556 150.829 256.64 150.816 256.725 150.82C256.904 150.806 257.083 150.858 257.228 150.966C257.372 151.075 257.474 151.232 257.514 151.41L268.951 232.41C268.958 232.496 268.947 232.582 268.919 232.662C268.891 232.743 268.845 232.817 268.787 232.879C268.728 232.94 268.657 232.988 268.578 233.02C268.499 233.051 268.415 233.065 268.33 233.06Z" fill="#06E124"/>
<path d="M244.646 246.93C244.467 246.944 244.289 246.892 244.144 246.784C243.999 246.675 243.897 246.518 243.858 246.34L232.42 165.34C232.413 165.254 232.424 165.168 232.452 165.088C232.481 165.007 232.526 164.933 232.585 164.871C232.644 164.81 232.715 164.762 232.794 164.73C232.872 164.699 232.957 164.685 233.041 164.69C233.222 164.675 233.402 164.727 233.548 164.835C233.695 164.943 233.798 165.101 233.84 165.28L245.268 246.28C245.275 246.365 245.264 246.451 245.235 246.532C245.207 246.613 245.162 246.687 245.103 246.748C245.044 246.81 244.973 246.858 244.894 246.889C244.815 246.921 244.731 246.935 244.646 246.93Z" fill="#06E124"/>
<path d="M220.963 260.79C220.784 260.807 220.606 260.757 220.461 260.65C220.316 260.544 220.214 260.387 220.174 260.21L208.736 179.21C208.729 179.125 208.74 179.039 208.768 178.959C208.797 178.879 208.842 178.805 208.901 178.745C208.96 178.684 209.031 178.637 209.11 178.606C209.189 178.576 209.273 178.564 209.357 178.57C209.538 178.553 209.719 178.604 209.866 178.713C210.013 178.821 210.116 178.98 210.156 179.16L221.584 260.16C221.59 260.244 221.577 260.329 221.548 260.408C221.519 260.487 221.474 260.559 221.415 260.619C221.356 260.678 221.285 260.725 221.207 260.754C221.129 260.784 221.046 260.796 220.963 260.79Z" fill="#06E124"/>
<path d="M197.289 274.66C197.108 274.674 196.928 274.623 196.782 274.515C196.635 274.406 196.532 274.249 196.49 274.07L185.052 193.07C185.045 192.984 185.056 192.898 185.085 192.818C185.113 192.737 185.158 192.663 185.217 192.601C185.276 192.54 185.347 192.492 185.426 192.46C185.505 192.429 185.589 192.415 185.674 192.42C185.854 192.405 186.034 192.457 186.181 192.565C186.327 192.673 186.43 192.831 186.472 193.01L197.91 274.01C197.917 274.095 197.906 274.181 197.878 274.262C197.849 274.343 197.804 274.417 197.745 274.478C197.686 274.54 197.615 274.588 197.536 274.619C197.458 274.651 197.373 274.664 197.289 274.66Z" fill="#06E124"/>
<path d="M173.605 288.53C173.424 288.545 173.244 288.493 173.098 288.385C172.951 288.277 172.848 288.119 172.806 287.94L161.369 206.94C161.363 206.855 161.375 206.77 161.404 206.689C161.433 206.609 161.478 206.536 161.537 206.475C161.595 206.414 161.666 206.366 161.744 206.334C161.822 206.302 161.906 206.287 161.99 206.29C162.17 206.275 162.35 206.327 162.497 206.435C162.643 206.543 162.747 206.701 162.788 206.88L174.226 287.88C174.232 287.965 174.219 288.05 174.19 288.131C174.161 288.211 174.116 288.284 174.058 288.345C173.999 288.406 173.929 288.454 173.851 288.486C173.773 288.518 173.689 288.533 173.605 288.53Z" fill="#06E124"/>
<path d="M149.921 302.39C149.742 302.407 149.562 302.358 149.415 302.251C149.269 302.145 149.165 301.988 149.123 301.81L137.695 220.81C137.688 220.725 137.699 220.638 137.727 220.558C137.756 220.477 137.801 220.403 137.86 220.342C137.919 220.28 137.99 220.232 138.069 220.201C138.147 220.169 138.232 220.155 138.316 220.16C138.496 220.146 138.674 220.198 138.819 220.306C138.964 220.414 139.065 220.572 139.105 220.75L150.543 301.75C150.55 301.835 150.539 301.921 150.511 302.001C150.482 302.081 150.437 302.155 150.378 302.215C150.319 302.276 150.247 302.323 150.168 302.354C150.09 302.384 150.005 302.396 149.921 302.39Z" fill="#06E124"/>
<path d="M126.208 316.26C126.028 316.277 125.849 316.228 125.702 316.121C125.555 316.014 125.451 315.858 125.409 315.68L113.982 234.68C113.974 234.595 113.985 234.509 114.014 234.429C114.042 234.348 114.088 234.275 114.147 234.214C114.206 234.154 114.277 234.106 114.356 234.076C114.435 234.046 114.519 234.034 114.603 234.04C114.781 234.023 114.96 234.073 115.105 234.179C115.25 234.286 115.352 234.443 115.392 234.62L126.829 315.62C126.837 315.705 126.826 315.791 126.797 315.871C126.769 315.951 126.723 316.024 126.664 316.085C126.605 316.146 126.534 316.193 126.455 316.223C126.376 316.253 126.292 316.266 126.208 316.26Z" fill="#06E124"/>
<path d="M117.659 255.53C117.536 255.536 117.413 255.513 117.3 255.462C117.187 255.412 117.087 255.336 117.008 255.24C116.952 255.179 116.91 255.106 116.885 255.027C116.861 254.947 116.856 254.862 116.869 254.78C116.882 254.698 116.914 254.62 116.962 254.552C117.011 254.484 117.074 254.429 117.146 254.39L282.923 157.32C283.084 157.236 283.269 157.209 283.448 157.244C283.626 157.278 283.788 157.372 283.909 157.51C283.965 157.57 284.007 157.643 284.032 157.723C284.056 157.803 284.061 157.887 284.048 157.97C284.035 158.052 284.003 158.13 283.955 158.198C283.906 158.266 283.843 158.321 283.771 158.36L118.004 255.43C117.897 255.487 117.78 255.521 117.659 255.53Z" fill="#06E124"/>
<path d="M120.519 275.77C120.397 275.776 120.275 275.754 120.162 275.706C120.049 275.657 119.949 275.583 119.868 275.49C119.812 275.429 119.769 275.356 119.745 275.277C119.721 275.197 119.715 275.112 119.729 275.03C119.742 274.948 119.774 274.87 119.822 274.802C119.87 274.734 119.933 274.679 120.006 274.64L285.782 177.57C285.942 177.481 286.127 177.451 286.307 177.484C286.486 177.516 286.649 177.61 286.768 177.75C286.825 177.81 286.867 177.883 286.891 177.963C286.916 178.043 286.921 178.127 286.908 178.21C286.895 178.292 286.863 178.37 286.814 178.438C286.766 178.505 286.703 178.561 286.63 178.6L120.864 275.67C120.759 275.732 120.64 275.766 120.519 275.77Z" fill="#06E124"/>
<path d="M123.378 296C123.253 296.007 123.129 295.984 123.014 295.934C122.9 295.884 122.798 295.807 122.718 295.71C122.661 295.649 122.62 295.575 122.596 295.495C122.573 295.415 122.568 295.33 122.582 295.248C122.597 295.165 122.63 295.087 122.679 295.02C122.728 294.953 122.792 294.898 122.865 294.86L288.632 197.79C288.794 197.708 288.978 197.682 289.156 197.716C289.334 197.751 289.497 197.843 289.618 197.98C289.673 198.042 289.713 198.115 289.736 198.194C289.759 198.274 289.764 198.357 289.751 198.439C289.738 198.521 289.707 198.598 289.66 198.666C289.613 198.734 289.551 198.79 289.48 198.83L123.723 295.92C123.615 295.971 123.497 295.998 123.378 296Z" fill="#06E124"/>
<path d="M126.208 316.26C126.083 316.266 125.958 316.242 125.843 316.19C125.734 316.149 125.638 316.081 125.562 315.991C125.486 315.902 125.434 315.795 125.409 315.68L113.982 234.68C113.967 234.571 113.985 234.459 114.035 234.361C114.084 234.263 114.162 234.182 114.258 234.13L280.024 137.08C280.134 137.023 280.255 136.993 280.379 136.993C280.502 136.993 280.624 137.023 280.734 137.08C280.844 137.121 280.941 137.191 281.015 137.282C281.09 137.373 281.139 137.483 281.158 137.6L292.595 218.6C292.61 218.708 292.591 218.818 292.541 218.914C292.492 219.011 292.415 219.09 292.319 219.14L126.583 316.16C126.47 316.23 126.34 316.265 126.208 316.26ZM115.48 235L126.711 314.56L291.166 218.26L279.935 138.7L115.48 235Z" fill="#06E124"/>
</g>
<g opacity="0.17">
<path d="M292.014 219.19C291.833 219.207 291.652 219.156 291.505 219.047C291.358 218.939 291.255 218.78 291.215 218.6L279.787 137.6C279.78 137.515 279.791 137.429 279.819 137.349C279.848 137.269 279.893 137.195 279.952 137.135C280.011 137.074 280.083 137.027 280.162 136.996C280.24 136.966 280.325 136.954 280.409 136.96C280.588 136.944 280.768 136.995 280.913 137.103C281.058 137.212 281.16 137.371 281.197 137.55L292.635 218.55C292.642 218.635 292.631 218.721 292.603 218.801C292.574 218.881 292.529 218.955 292.47 219.015C292.411 219.076 292.34 219.123 292.261 219.154C292.182 219.184 292.098 219.196 292.014 219.19Z" fill="black"/>
<path d="M268.33 233.06C268.149 233.075 267.97 233.023 267.823 232.915C267.677 232.807 267.573 232.649 267.531 232.47L256.104 151.47C256.097 151.385 256.108 151.299 256.136 151.218C256.164 151.137 256.21 151.063 256.268 151.002C256.327 150.94 256.398 150.892 256.477 150.861C256.556 150.829 256.64 150.816 256.725 150.82C256.904 150.806 257.083 150.858 257.228 150.966C257.372 151.075 257.474 151.232 257.514 151.41L268.951 232.41C268.958 232.496 268.947 232.582 268.919 232.662C268.891 232.743 268.845 232.817 268.787 232.879C268.728 232.94 268.657 232.988 268.578 233.02C268.499 233.051 268.415 233.065 268.33 233.06Z" fill="black"/>
<path d="M244.646 246.93C244.467 246.944 244.289 246.892 244.144 246.784C243.999 246.675 243.897 246.518 243.858 246.34L232.42 165.34C232.413 165.254 232.424 165.168 232.452 165.088C232.481 165.007 232.526 164.933 232.585 164.871C232.644 164.81 232.715 164.762 232.794 164.73C232.872 164.699 232.957 164.685 233.041 164.69C233.222 164.675 233.402 164.727 233.548 164.835C233.695 164.943 233.798 165.101 233.84 165.28L245.268 246.28C245.275 246.365 245.264 246.451 245.235 246.532C245.207 246.613 245.162 246.687 245.103 246.748C245.044 246.81 244.973 246.858 244.894 246.889C244.815 246.921 244.731 246.935 244.646 246.93Z" fill="black"/>
<path d="M220.963 260.79C220.784 260.807 220.606 260.757 220.461 260.65C220.316 260.544 220.214 260.387 220.174 260.21L208.736 179.21C208.729 179.125 208.74 179.039 208.768 178.959C208.797 178.879 208.842 178.805 208.901 178.745C208.96 178.684 209.031 178.637 209.11 178.606C209.189 178.576 209.273 178.564 209.357 178.57C209.538 178.553 209.719 178.604 209.866 178.713C210.013 178.821 210.116 178.98 210.156 179.16L221.584 260.16C221.59 260.244 221.577 260.329 221.548 260.408C221.519 260.487 221.474 260.559 221.415 260.619C221.356 260.678 221.285 260.725 221.207 260.754C221.129 260.784 221.046 260.796 220.963 260.79Z" fill="black"/>
<path d="M197.289 274.66C197.108 274.674 196.928 274.623 196.782 274.515C196.635 274.406 196.532 274.249 196.49 274.07L185.052 193.07C185.045 192.984 185.056 192.898 185.085 192.818C185.113 192.737 185.158 192.663 185.217 192.601C185.276 192.54 185.347 192.492 185.426 192.46C185.505 192.429 185.589 192.415 185.674 192.42C185.854 192.405 186.034 192.457 186.181 192.565C186.327 192.673 186.43 192.831 186.472 193.01L197.91 274.01C197.917 274.095 197.906 274.181 197.878 274.262C197.849 274.343 197.804 274.417 197.745 274.478C197.686 274.54 197.615 274.588 197.536 274.619C197.458 274.651 197.373 274.664 197.289 274.66Z" fill="black"/>
<path d="M173.605 288.53C173.424 288.545 173.244 288.493 173.098 288.385C172.951 288.277 172.848 288.119 172.806 287.94L161.369 206.94C161.363 206.855 161.375 206.77 161.404 206.689C161.433 206.609 161.478 206.536 161.537 206.475C161.595 206.414 161.666 206.366 161.744 206.334C161.822 206.302 161.906 206.287 161.99 206.29C162.17 206.275 162.35 206.327 162.497 206.435C162.643 206.543 162.747 206.701 162.788 206.88L174.226 287.88C174.232 287.965 174.219 288.05 174.19 288.131C174.161 288.211 174.116 288.284 174.058 288.345C173.999 288.406 173.929 288.454 173.851 288.486C173.773 288.518 173.689 288.533 173.605 288.53Z" fill="black"/>
<path d="M149.921 302.39C149.742 302.407 149.562 302.358 149.415 302.251C149.269 302.145 149.165 301.988 149.123 301.81L137.695 220.81C137.688 220.725 137.699 220.638 137.727 220.558C137.756 220.477 137.801 220.403 137.86 220.342C137.919 220.28 137.99 220.232 138.069 220.201C138.147 220.169 138.232 220.155 138.316 220.16C138.496 220.146 138.674 220.198 138.819 220.306C138.964 220.414 139.065 220.572 139.105 220.75L150.543 301.75C150.55 301.835 150.539 301.921 150.511 302.001C150.482 302.081 150.437 302.155 150.378 302.215C150.319 302.276 150.247 302.323 150.168 302.354C150.09 302.384 150.005 302.396 149.921 302.39Z" fill="black"/>
<path d="M126.208 316.26C126.028 316.277 125.849 316.228 125.702 316.121C125.555 316.014 125.451 315.858 125.409 315.68L113.982 234.68C113.974 234.595 113.985 234.509 114.014 234.429C114.042 234.348 114.088 234.275 114.147 234.214C114.206 234.154 114.277 234.106 114.356 234.076C114.435 234.046 114.519 234.034 114.603 234.04C114.781 234.023 114.96 234.073 115.105 234.179C115.25 234.286 115.352 234.443 115.392 234.62L126.829 315.62C126.837 315.705 126.826 315.791 126.797 315.871C126.769 315.951 126.723 316.024 126.664 316.085C126.605 316.146 126.534 316.193 126.455 316.223C126.376 316.253 126.292 316.266 126.208 316.26Z" fill="black"/>
<path d="M117.659 255.53C117.536 255.536 117.413 255.513 117.3 255.462C117.187 255.412 117.087 255.336 117.008 255.24C116.952 255.179 116.91 255.106 116.885 255.027C116.861 254.947 116.856 254.862 116.869 254.78C116.882 254.698 116.914 254.62 116.962 254.552C117.011 254.484 117.074 254.429 117.146 254.39L282.923 157.32C283.084 157.236 283.269 157.209 283.448 157.244C283.626 157.278 283.788 157.372 283.909 157.51C283.965 157.57 284.007 157.643 284.032 157.723C284.056 157.803 284.061 157.887 284.048 157.97C284.035 158.052 284.003 158.13 283.955 158.198C283.906 158.266 283.843 158.321 283.771 158.36L118.004 255.43C117.897 255.487 117.78 255.521 117.659 255.53Z" fill="black"/>
<path d="M120.519 275.77C120.397 275.776 120.275 275.754 120.162 275.706C120.049 275.657 119.949 275.583 119.868 275.49C119.812 275.429 119.769 275.356 119.745 275.277C119.721 275.197 119.715 275.112 119.729 275.03C119.742 274.948 119.774 274.87 119.822 274.802C119.87 274.734 119.933 274.679 120.006 274.64L285.782 177.57C285.942 177.481 286.127 177.451 286.307 177.484C286.486 177.516 286.649 177.61 286.768 177.75C286.825 177.81 286.867 177.883 286.891 177.963C286.916 178.043 286.921 178.127 286.908 178.21C286.895 178.292 286.863 178.37 286.814 178.438C286.766 178.505 286.703 178.561 286.63 178.6L120.864 275.67C120.759 275.732 120.64 275.766 120.519 275.77Z" fill="black"/>
<path d="M123.378 296C123.253 296.007 123.129 295.984 123.014 295.934C122.9 295.884 122.798 295.807 122.718 295.71C122.661 295.649 122.62 295.575 122.596 295.495C122.573 295.415 122.568 295.33 122.582 295.248C122.597 295.165 122.63 295.087 122.679 295.02C122.728 294.953 122.792 294.898 122.865 294.86L288.632 197.79C288.794 197.708 288.978 197.682 289.156 197.716C289.334 197.751 289.497 197.843 289.618 197.98C289.673 198.042 289.713 198.115 289.736 198.194C289.759 198.274 289.764 198.357 289.751 198.439C289.738 198.521 289.707 198.598 289.66 198.666C289.613 198.734 289.551 198.79 289.48 198.83L123.723 295.92C123.615 295.971 123.497 295.998 123.378 296Z" fill="black"/>
<path d="M126.208 316.26C126.083 316.266 125.958 316.242 125.843 316.19C125.734 316.149 125.638 316.081 125.562 315.991C125.486 315.902 125.434 315.795 125.409 315.68L113.982 234.68C113.967 234.571 113.985 234.459 114.035 234.361C114.084 234.263 114.162 234.182 114.258 234.13L280.024 137.08C280.134 137.023 280.255 136.993 280.379 136.993C280.502 136.993 280.624 137.023 280.734 137.08C280.844 137.121 280.941 137.191 281.015 137.282C281.09 137.373 281.139 137.483 281.158 137.6L292.595 218.6C292.61 218.708 292.591 218.818 292.541 218.914C292.492 219.011 292.415 219.09 292.319 219.14L126.583 316.16C126.47 316.23 126.34 316.265 126.208 316.26ZM115.48 235L126.711 314.56L291.166 218.26L279.935 138.7L115.48 235Z" fill="black"/>
</g>
<path d="M211.724 192.05C211.537 190.723 210.97 189.482 210.094 188.479C209.218 187.476 208.07 186.757 206.794 186.41C203.087 185.46 200.454 188.03 198.531 190.19C198.028 190.77 199.113 190.98 199.517 190.58C201.489 188.58 205.492 186.58 208.303 188.97C211.113 191.36 210.353 195.11 209.496 197.89C208.68 200.529 207.055 202.835 204.858 204.473C202.661 206.112 200.006 206.997 197.279 207C183.909 206.69 195.376 185.8 203.067 184.32C203.688 184.2 204.053 183.32 203.146 183.24C199.113 182.84 196.727 186.03 194.577 188.44C192.221 191.006 190.474 194.084 189.47 197.44C187.695 203.67 192.655 211.03 200.908 208.28C208.125 205.89 213.183 199.12 211.724 192.05Z" fill="#F28F8F"/>
<path d="M272.935 170.42L274.088 172.07C274.119 172.121 274.168 172.158 274.224 172.175C274.281 172.191 274.341 172.186 274.394 172.16L276.366 171.39C276.672 171.27 276.859 171.66 276.682 172.06L275.538 174.53C275.469 174.676 275.452 174.842 275.489 175L276.149 177.17C276.258 177.52 275.982 177.99 275.686 177.97L273.832 177.85C273.762 177.85 273.694 177.869 273.634 177.904C273.573 177.939 273.523 177.989 273.487 178.05L271.949 180.16C271.702 180.49 271.347 180.39 271.347 179.98V177.43C271.355 177.363 271.343 177.295 271.313 177.235C271.283 177.175 271.237 177.124 271.18 177.09L269.573 176.22C269.316 176.08 269.375 175.55 269.671 175.32L271.515 173.86C271.641 173.756 271.728 173.611 271.762 173.45L272.304 170.81C272.363 170.39 272.748 170.16 272.935 170.42Z" fill="#F28F8F"/>
<path d="M284.234 169.78C284.047 168.453 283.481 167.212 282.604 166.209C281.728 165.206 280.58 164.487 279.304 164.14C275.597 163.19 272.964 165.76 271.041 167.92C270.539 168.49 271.633 168.71 272.027 168.31C274.049 166.31 278.003 164.31 280.822 166.7C283.642 169.09 282.863 172.84 282.006 175.62C281.182 178.246 279.557 180.539 277.364 182.168C275.172 183.796 272.526 184.676 269.809 184.68C256.439 184.37 267.916 163.48 275.597 162.01C276.218 161.89 276.533 161.01 275.676 160.92C271.643 160.52 269.257 163.71 267.117 166.13C264.746 168.706 262.994 171.803 262 175.18C260.225 181.41 265.185 188.77 273.437 186.02C280.635 183.62 285.693 176.85 284.234 169.78Z" fill="#F28F8F"/>
<path d="M261.458 208C261.27 206.675 260.703 205.435 259.827 204.434C258.95 203.433 257.803 202.715 256.528 202.37C252.82 201.37 250.188 203.98 248.265 206.15C247.762 206.72 248.847 206.93 249.251 206.53C251.223 204.53 255.226 202.53 258.036 204.92C260.846 207.31 260.087 211.07 259.229 213.84C258.407 216.468 256.783 218.763 254.59 220.394C252.398 222.024 249.751 222.905 247.032 222.91C233.662 222.6 245.139 201.71 252.82 200.23C253.441 200.11 253.757 199.23 252.899 199.15C248.866 198.75 246.48 201.94 244.331 204.35C241.968 206.93 240.22 210.026 239.223 213.4C237.449 219.63 242.408 226.99 250.661 224.24C257.859 221.87 262.917 215.1 261.458 208Z" fill="#F28F8F"/>
<path d="M238.711 201C237.89 199.876 236.969 198.832 235.96 197.88C235.585 197.47 234.668 197.88 234.885 198.33C235.417 199.51 236.531 200.25 237.212 201.33C237.32 201.5 237.448 201.69 237.587 201.88C235.979 200.56 232.499 199.77 231.079 199.32C226.746 198.028 222.152 197.928 217.768 199.03C217.354 199.12 217.521 199.49 217.886 199.56C218.545 199.649 219.213 199.612 219.858 199.45C222.178 199.261 224.511 199.352 226.81 199.72C229.018 200.02 234.293 201.22 236.581 202.94C234.254 202.36 231.818 202.25 230.379 203.64C230.328 203.677 230.29 203.728 230.27 203.787C230.249 203.846 230.246 203.911 230.262 203.972C230.278 204.032 230.312 204.087 230.359 204.127C230.407 204.168 230.465 204.193 230.527 204.2C231.996 204.51 233.228 204.15 234.707 204.35C236.417 204.554 238.094 204.981 239.697 205.62C239.819 205.674 239.952 205.695 240.085 205.681C240.217 205.667 240.344 205.618 240.452 205.54C240.561 205.461 240.647 205.355 240.703 205.232C240.759 205.11 240.782 204.974 240.771 204.84C240.663 203.43 239.47 202.25 238.711 201Z" fill="#F28F8F"/>
<path d="M414.731 175.61L375.903 282.78C375.775 283.107 375.532 283.374 375.222 283.53C374.236 284.1 372.028 283.37 372.698 282.03L411.626 174.26C411.739 173.947 411.912 173.66 412.135 173.414C412.357 173.169 412.626 172.97 412.924 172.83C413.223 172.69 413.546 172.611 413.874 172.597C414.203 172.583 414.531 172.635 414.84 172.75C416.092 173.25 415.205 174.29 414.731 175.61Z" fill="#37474F"/>
<path d="M401.953 273.12L363.025 250.32L363.716 247.17L402.653 269.97L401.953 273.12Z" fill="#263238"/>
<path d="M386.887 191.36L348.058 298.53C347.929 298.853 347.686 299.117 347.378 299.27C346.392 299.84 344.183 299.11 344.854 297.77L383.781 190C384.012 189.369 384.479 188.856 385.081 188.574C385.683 188.291 386.371 188.261 386.995 188.49C388.297 189 387.37 190 386.887 191.36Z" fill="#37474F"/>
<path d="M430.271 256.54L391.333 233.74L392.034 230.59L430.971 253.39L430.271 256.54Z" fill="#263238"/>
<path d="M447.802 324.43C447.763 324.544 447.7 324.648 447.619 324.736C447.537 324.824 447.438 324.894 447.328 324.94C446.869 325.173 446.363 325.295 445.849 325.295C445.336 325.295 444.83 325.173 444.37 324.94C444.142 324.821 443.969 324.617 443.887 324.37L409.417 161.22C409.348 160.93 409.18 160.4 408.796 160.22C408.697 160.173 408.589 160.149 408.48 160.15C408.183 160.168 407.895 160.261 407.642 160.42L386.877 172.6L384.905 169.12L405.67 157C406.522 156.491 407.491 156.219 408.48 156.21C409.159 156.198 409.832 156.338 410.452 156.62C411.196 156.977 411.845 157.509 412.346 158.172C412.847 158.835 413.185 159.609 413.331 160.43L447.841 324C447.849 324.1 447.849 324.2 447.841 324.3C447.831 324.344 447.817 324.388 447.802 324.43Z" fill="#455A64"/>
<path d="M418.528 325L405.877 317.6C405.659 317.453 405.478 317.256 405.348 317.025C405.217 316.794 405.142 316.536 405.128 316.27V315.96C405.142 315.696 405.218 315.439 405.348 315.21C405.478 314.981 405.659 314.786 405.877 314.64L436.226 296.87C436.461 296.752 436.719 296.691 436.981 296.691C437.242 296.691 437.501 296.752 437.735 296.87L450.385 304.28C450.604 304.424 450.787 304.619 450.917 304.849C451.047 305.078 451.122 305.336 451.135 305.6V305.91C451.122 306.175 451.047 306.433 450.917 306.662C450.787 306.892 450.604 307.086 450.385 307.23L420.036 325C419.803 325.124 419.545 325.188 419.282 325.188C419.019 325.188 418.76 325.124 418.528 325Z" fill="#D8541B"/>
<path opacity="0.1" d="M405.345 315.17C405.21 315.397 405.135 315.656 405.128 315.92V316.23C405.142 316.496 405.217 316.754 405.348 316.985C405.478 317.216 405.659 317.413 405.877 317.56L418.528 324.96C418.761 325.087 419.022 325.153 419.287 325.15V323.33L405.345 315.17Z" fill="black"/>
<path opacity="0.15" d="M419.287 323.33V325.15C419.545 325.164 419.802 325.112 420.036 325L435.211 316.12L450.385 307.23C450.604 307.086 450.786 306.891 450.917 306.662C451.047 306.432 451.122 306.175 451.134 305.91V305.6C451.127 305.335 451.052 305.077 450.918 304.85L419.287 323.33Z" fill="black"/>
<path d="M413.045 299L400.395 291.6C400.177 291.453 399.995 291.256 399.865 291.025C399.735 290.794 399.66 290.536 399.646 290.27V289.97C399.658 289.705 399.733 289.445 399.863 289.214C399.993 288.983 400.175 288.787 400.395 288.64L430.744 270.87C430.978 270.752 431.237 270.691 431.498 270.691C431.76 270.691 432.018 270.752 432.253 270.87L444.903 278.28C445.121 278.426 445.302 278.621 445.433 278.85C445.563 279.079 445.638 279.336 445.652 279.6V279.91C445.64 280.175 445.565 280.433 445.435 280.662C445.304 280.892 445.122 281.086 444.903 281.23L414.554 299C414.321 299.124 414.062 299.188 413.8 299.188C413.537 299.188 413.278 299.124 413.045 299Z" fill="#D8541B"/>
<path opacity="0.1" d="M399.862 289.16C399.726 289.39 399.651 289.652 399.646 289.92V290.22C399.66 290.486 399.735 290.744 399.865 290.975C399.995 291.206 400.177 291.403 400.395 291.55L413.045 298.95C413.277 299.082 413.539 299.148 413.804 299.14V297.32L399.862 289.16Z" fill="black"/>
<path opacity="0.15" d="M413.805 297.32V299.14C414.067 299.146 414.326 299.081 414.554 298.95L429.729 290.07L444.903 281.18C445.122 281.036 445.305 280.842 445.435 280.612C445.565 280.382 445.64 280.125 445.653 279.86V279.55C445.645 279.286 445.57 279.027 445.436 278.8L413.805 297.32Z" fill="black"/>
<path d="M407.563 272.94L394.913 265.54C394.693 265.394 394.51 265.197 394.378 264.966C394.247 264.735 394.17 264.477 394.153 264.21V263.91C394.168 263.644 394.244 263.384 394.376 263.153C394.508 262.922 394.692 262.726 394.913 262.58L425.262 244.81C425.496 244.692 425.754 244.631 426.016 244.631C426.278 244.631 426.536 244.692 426.77 244.81L439.411 252.22C439.632 252.363 439.816 252.558 439.948 252.787C440.08 253.017 440.156 253.275 440.17 253.54V253.85C440.156 254.117 440.08 254.377 439.948 254.608C439.816 254.839 439.632 255.035 439.411 255.18L409.072 272.94C408.839 273.064 408.58 273.128 408.317 273.128C408.054 273.128 407.796 273.064 407.563 272.94Z" fill="#D8541B"/>
<path opacity="0.1" d="M394.4 263.15C394.261 263.38 394.183 263.641 394.173 263.91V264.21C394.19 264.477 394.267 264.735 394.398 264.966C394.53 265.197 394.713 265.394 394.933 265.54L401.253 269.24L407.583 272.94C407.811 273.071 408.07 273.136 408.332 273.13V271.31L394.4 263.15Z" fill="black"/>
<path opacity="0.15" d="M408.312 271.31V273.13C408.578 273.137 408.84 273.072 409.072 272.94L424.246 264.06L439.411 255.18C439.632 255.035 439.816 254.839 439.948 254.608C440.08 254.376 440.156 254.117 440.17 253.85V253.54C440.158 253.276 440.084 253.019 439.953 252.79L408.312 271.31Z" fill="black"/>
<path d="M402.081 246.93L389.47 239.53C389.249 239.385 389.065 239.189 388.933 238.958C388.801 238.726 388.725 238.467 388.711 238.2V237.9C388.725 237.633 388.801 237.374 388.933 237.143C389.065 236.911 389.249 236.715 389.47 236.57L419.809 218.8C420.044 218.682 420.302 218.621 420.564 218.621C420.825 218.621 421.084 218.682 421.318 218.8L433.968 226.21C434.189 226.353 434.373 226.547 434.506 226.777C434.638 227.006 434.714 227.265 434.728 227.53V227.84C434.714 228.107 434.638 228.366 434.506 228.598C434.374 228.829 434.19 229.025 433.968 229.17L403.629 246.93C403.391 247.06 403.125 247.129 402.855 247.129C402.585 247.129 402.319 247.06 402.081 246.93Z" fill="#D8541B"/>
<path opacity="0.15" d="M402.83 245.3V247.12C403.095 247.126 403.357 247.061 403.589 246.93L418.754 238.05L433.929 229.17C434.15 229.025 434.334 228.829 434.466 228.598C434.598 228.367 434.674 228.107 434.688 227.84V227.53C434.676 227.265 434.598 227.007 434.461 226.78L402.83 245.3Z" fill="black"/>
<path opacity="0.1" d="M388.898 237.14C388.759 237.369 388.681 237.631 388.671 237.9V238.2C388.685 238.467 388.761 238.727 388.893 238.958C389.025 239.189 389.209 239.385 389.431 239.53L402.081 246.93C402.309 247.062 402.568 247.128 402.83 247.12V245.3L388.898 237.14Z" fill="black"/>
<path d="M396.589 220.93L375.577 208.62C375.355 208.476 375.171 208.28 375.039 208.048C374.907 207.817 374.831 207.557 374.818 207.29V207C374.832 206.733 374.908 206.474 375.04 206.243C375.172 206.011 375.356 205.815 375.577 205.67L405.916 187.9C406.151 187.782 406.409 187.721 406.671 187.721C406.932 187.721 407.19 187.782 407.425 187.9L428.446 200.21C428.667 200.356 428.851 200.552 428.983 200.783C429.115 201.014 429.191 201.274 429.206 201.54V201.84C429.189 202.106 429.112 202.365 428.981 202.596C428.849 202.827 428.666 203.023 428.446 203.17L398.097 220.94C397.862 221.057 397.604 221.116 397.342 221.115C397.08 221.113 396.822 221.05 396.589 220.93Z" fill="#D8541B"/>
<path opacity="0.15" d="M397.358 219.29V221.11C397.619 221.116 397.877 221.054 398.107 220.93L413.272 212L428.446 203.12C428.666 202.973 428.849 202.777 428.981 202.546C429.112 202.315 429.189 202.056 429.206 201.79V201.49C429.196 201.221 429.118 200.959 428.979 200.73L397.358 219.29Z" fill="black"/>
<path opacity="0.1" d="M375.035 206.24C374.904 206.469 374.83 206.726 374.818 206.99V207.29C374.831 207.557 374.907 207.817 375.039 208.048C375.171 208.28 375.355 208.476 375.577 208.62L396.589 220.93C396.823 221.054 397.084 221.116 397.348 221.11V219.29L375.035 206.24Z" fill="black"/>
<path d="M419.484 341C419.484 341.16 419.286 341.35 419.02 341.51C418.553 341.747 418.039 341.87 417.517 341.87C416.995 341.87 416.48 341.747 416.013 341.51C415.839 341.417 415.693 341.279 415.589 341.11L415.54 340.96V340.89L381.099 177.82C380.805 176.15 381.01 174.43 381.688 172.879C382.367 171.329 383.487 170.02 384.905 169.12L386.877 172.6C386.183 173.071 385.636 173.731 385.297 174.505C384.959 175.278 384.843 176.133 384.964 176.97L419.474 340.55C419.478 340.703 419.478 340.857 419.474 341.01L419.484 341Z" fill="#455A64"/>
<path d="M65.1453 230.22V200.22L57.6615 200.54L50.1778 200.22V230.22C49.9904 236.4 33.6721 236.69 33.2876 260.7V350.21C33.2876 355.69 44.4195 359.54 57.6615 359.54C70.9035 359.54 82.0354 355.69 82.0354 350.21V260.7C81.6607 236.69 65.3326 236.4 65.1453 230.22Z" fill="#06E124"/>
<path opacity="0.4" d="M65.1453 230.22V200.22L57.6615 200.54L50.1778 200.22V230.22C49.9904 236.4 33.6721 236.69 33.2876 260.7V350.21C33.2876 355.69 44.4195 359.54 57.6615 359.54C70.9035 359.54 82.0354 355.69 82.0354 350.21V260.7C81.6607 236.69 65.3326 236.4 65.1453 230.22Z" fill="black"/>
<path d="M57.6616 284.56C52.8134 284.606 47.9792 284.024 43.2759 282.83V331.71C47.9792 332.905 52.8134 333.486 57.6616 333.44C70.9036 333.44 82.0355 329.59 82.0355 324.1V275.22C82.0355 280.71 70.9036 284.56 57.6616 284.56Z" fill="#FAFAFA"/>
<path d="M50.168 205.11C50.168 202.57 65.2045 202.8 65.165 205.34V194.17C65.165 188.93 50.168 189.35 50.168 193.6V205.11Z" fill="#37474F"/>
<path d="M98.2552 309.65C97.7791 309.655 97.3242 309.85 96.9885 310.192C96.6528 310.535 96.4632 310.997 96.4606 311.48L96.6283 352.43C96.6259 353.343 96.3 354.226 95.71 354.916C95.12 355.606 94.3051 356.058 93.4139 356.19C89.4699 356.8 86.6894 358.12 86.6992 360.04C86.6992 362.7 91.9842 364.82 98.4622 364.78C104.94 364.74 110.186 362.55 110.166 359.89C110.166 357.97 107.445 356.68 103.501 356.12C102.604 356.002 101.779 355.56 101.177 354.875C100.576 354.189 100.239 353.307 100.227 352.39L100.069 311.47C100.068 311.23 100.02 310.992 99.9283 310.77C99.8364 310.549 99.7024 310.348 99.534 310.179C99.3655 310.01 99.1658 309.876 98.9464 309.785C98.727 309.695 98.4921 309.649 98.2552 309.65Z" fill="#D8541B"/>
<path opacity="0.2" d="M98.2552 309.65C97.7791 309.655 97.3242 309.85 96.9885 310.192C96.6528 310.535 96.4632 310.997 96.4606 311.48L96.6283 352.43C96.6259 353.343 96.3 354.226 95.71 354.916C95.12 355.606 94.3051 356.058 93.4139 356.19C89.4699 356.8 86.6894 358.12 86.6992 360.04C86.6992 362.7 91.9842 364.82 98.4622 364.78C104.94 364.74 110.186 362.55 110.166 359.89C110.166 357.97 107.445 356.68 103.501 356.12C102.604 356.002 101.779 355.56 101.177 354.875C100.576 354.189 100.239 353.307 100.227 352.39L100.069 311.47C100.068 311.23 100.02 310.992 99.9283 310.77C99.8364 310.549 99.7024 310.348 99.534 310.179C99.3655 310.01 99.1658 309.876 98.9464 309.785C98.727 309.695 98.4921 309.649 98.2552 309.65Z" fill="black"/>
<path d="M112.7 268.52C111.645 265.35 106.005 262.9 98.462 262.9C90.7614 262.9 85.3187 265.18 84.2636 268.6C83.2086 272.02 79.0181 291.09 79.0773 300.07C79.0773 306.83 84.0073 318.31 98.4127 318.31C112.818 318.31 117.768 306.94 117.847 300.18C117.955 291.15 113.854 271.74 112.7 268.52Z" fill="#D8541B"/>
<path opacity="0.1" d="M112.7 268.52C111.645 265.35 106.005 262.9 98.462 262.9C90.7614 262.9 85.3187 265.18 84.2636 268.6C83.2086 272.02 79.0181 291.09 79.0773 300.07C79.0773 306.83 84.0073 318.31 98.4127 318.31C112.818 318.31 117.768 306.94 117.847 300.18C117.955 291.15 113.854 271.74 112.7 268.52Z" fill="black"/>
<path d="M114.317 285.67C114.287 285.498 114.238 285.33 114.169 285.17C113.627 281.77 106.813 279.07 98.4619 279.07C90.1105 279.07 83.1987 281.81 82.7451 285.24C82.7032 285.354 82.6702 285.471 82.6465 285.59C82.2324 288.04 81.9662 297.81 81.9859 300.05C81.9859 302.64 84.9439 315.59 98.4126 315.59C111.881 315.59 114.908 302.73 114.938 300.15C114.968 297.91 114.721 288.12 114.317 285.67Z" fill="#37474F"/>
<path d="M114.219 285.61C114.219 289.21 107.159 292.14 98.4425 292.14C89.7263 292.14 82.6665 289.21 82.6665 285.61C82.6665 282.01 89.7164 279.07 98.4425 279.07C107.169 279.07 114.219 282 114.219 285.61Z" fill="#455A64"/>
<path opacity="0.15" d="M111.329 269.39C111.329 272.33 105.571 274.72 98.5114 274.72C91.4516 274.72 85.6934 272.33 85.6934 269.39C85.6934 266.45 91.4516 264.05 98.5114 264.05C105.571 264.05 111.329 266.44 111.329 269.39Z" fill="black"/>
<path d="M462.059 160.61C462.207 157.01 463.45 153.55 463.174 149.92C462.986 147.46 462.543 144.09 460.009 142.98C459.976 142.962 459.939 142.952 459.901 142.952C459.864 142.951 459.827 142.959 459.793 142.976C459.76 142.992 459.73 143.017 459.708 143.047C459.685 143.078 459.67 143.113 459.664 143.15C459.614 143.36 459.811 143.47 459.94 143.57C461.823 145.12 462.02 148.02 462.129 150.31C462.296 153.86 460.985 157.25 460.886 160.77C460.788 164.29 461.586 167.77 462.217 171.29C462.594 173.08 462.805 174.901 462.848 176.73C462.808 178.294 462.623 179.851 462.296 181.38C461.586 184.95 460.689 188.55 461.31 192.2C461.31 192.4 461.596 192.5 461.586 192.2C461.419 188.71 462.503 185.39 463.233 182.03C463.619 180.409 463.86 178.756 463.953 177.09C463.969 175.318 463.808 173.549 463.469 171.81C462.829 168.12 461.902 164.41 462.059 160.61Z" fill="#455A64"/>
<path d="M421.515 145.25C417.67 144.63 415.185 146.25 413.834 152.44C412.661 157.75 411.675 169.76 411.675 169.76C411.675 169.76 398.117 163.46 395.041 162.76C391.965 162.06 390.2 162 387.853 164.09C385.782 165.94 385.033 166.19 385.506 168.35L386.985 167.44C386.985 167.44 389.293 166.44 390.259 167.98C390.629 168.448 390.845 169.022 390.877 169.621C390.909 170.22 390.755 170.814 390.436 171.32L389.717 171.75C390.026 172.168 390.457 172.476 390.95 172.631C391.442 172.785 391.97 172.778 392.458 172.61C394.37 172.13 394.587 171.42 395.928 171.08C397.427 170.71 407.524 176.48 411.389 178.27C415.737 180.27 417.778 180.22 418.902 175.88C420.115 171.18 422.984 155.32 422.984 155.32L421.515 145.25Z" fill="#FFBDA7"/>
<path d="M430.034 232.72C431.336 247.25 431.809 251.58 432.785 260.72C432.962 261.656 433.09 262.601 433.17 263.55C433.258 264.48 440.486 264.76 440.417 263.61C440.417 263.61 440.338 262.61 440.308 261.61C440.249 257.09 442.418 248.31 442.753 240.45C443.01 234.52 441.767 231.59 441.008 228.6C441.008 228.6 442.862 211 443.325 194.08C443.565 187.611 441.751 181.235 438.149 175.89L424.434 178.29C424.434 178.29 425.952 198.82 427.53 215C427.983 219.58 429.433 229.18 430.034 232.72Z" fill="#FFBDA7"/>
<path d="M417.403 181.17C415.688 184.61 406.321 200.76 403.264 211.43C402.534 213.99 401.913 216.25 405.768 224.12C407.662 227.99 409.712 231.89 410.698 234.12C413.321 239.82 414.741 242.41 416.614 246.85C417.219 248.536 417.674 250.273 417.975 252.04C420.992 254.04 424.936 250.65 424.936 250.65C424.936 250.65 424.335 247.19 423.95 245.49C422.678 239.62 422.521 225.36 415.283 217.96C419.651 210.67 435.575 189.83 438.385 177.09L417.403 181.17Z" fill="#FFBDA7"/>
<path d="M430.951 242.69C433.209 244.15 437.123 243.96 438.711 243.85C440.064 243.822 441.393 243.48 442.596 242.85C442.665 242.06 442.714 241.27 442.753 240.49C443.01 234.56 441.767 231.63 441.008 228.64C441.008 228.64 442.98 212.57 443.443 195.64C443.611 189.79 444.035 181.88 440.022 175.92L416.476 180.59C414.771 184.02 406.321 200.8 403.264 211.47C402.534 214.03 401.913 216.29 405.768 224.16C407.307 227.31 408.914 230.46 409.998 232.7H410.205C410.81 232.735 411.415 232.735 412.02 232.7C413.155 232.662 414.282 232.498 415.382 232.21C416.525 231.905 417.632 231.476 418.685 230.93C419.528 230.453 420.344 229.929 421.13 229.36C419.977 225.09 418.172 220.91 415.214 217.89C417.236 214.52 421.712 208.27 426.228 201.26C426.622 205.83 427.046 210.58 427.49 215.01C427.934 219.44 429.393 229.15 429.994 232.69C430.34 236.15 430.714 240.2 430.951 242.69Z" fill="#37474F"/>
<path d="M426.268 201.29V196C426.268 196 421.623 193.64 420.026 191.18C420.026 191.18 420.588 194.38 424.66 197.01L425.065 200.71L416.94 215.26C420.657 209.76 424.266 204.41 426.268 201.29Z" fill="#263238"/>
<path d="M442.448 268.73C442.51 269.278 442.51 269.832 442.448 270.38C442.211 270.91 441.57 271.06 440.861 271.9C439.786 273.18 439.983 275.43 439.549 277.48C439.355 278.367 438.945 279.19 438.358 279.876C437.771 280.562 437.025 281.09 436.187 281.41C433.803 282.387 431.184 282.61 428.674 282.05C425.548 281.41 425.331 279.53 425.331 279.53C425.331 279.53 425.193 277.77 425.982 277.53C426.771 277.29 442.448 268.73 442.448 268.73Z" fill="#263238"/>
<path d="M442.448 268.73C442.192 269.105 441.887 269.441 441.541 269.73C441.182 270.051 440.852 270.402 440.555 270.78C439.916 271.57 439.464 272.497 439.233 273.49C439.076 274.25 439.076 275.03 438.938 275.79C438.704 277.087 438.096 278.284 437.192 279.23C436.225 280.131 434.998 280.691 433.692 280.83C429.571 281.57 426.474 280.19 425.735 278.99C424.995 277.79 425.784 276.62 428.328 274.99C429.189 274.562 429.938 273.936 430.517 273.16C431.376 271.742 431.934 270.157 432.156 268.508C432.379 266.859 432.26 265.181 431.809 263.58C431.697 263.311 431.653 263.017 431.68 262.725C431.708 262.434 431.806 262.154 431.966 261.91C432.18 261.686 432.439 261.512 432.726 261.4C434.253 260.759 435.957 260.695 437.528 261.22C437.621 261.251 437.707 261.298 437.784 261.36C437.867 261.484 437.912 261.631 437.912 261.78C437.952 262.048 438.047 262.304 438.191 262.532C438.336 262.759 438.526 262.953 438.75 263.1C438.782 263.11 438.817 263.11 438.849 263.1C438.887 263.087 438.921 263.062 438.947 263.03C439.166 262.79 439.361 262.529 439.529 262.25C439.613 262.087 439.726 261.941 439.864 261.82C439.991 261.721 440.142 261.657 440.301 261.634C440.46 261.611 440.622 261.631 440.771 261.69C440.697 262.625 440.926 263.559 441.422 264.35C441.59 264.66 441.866 265.35 442.024 265.66C442.541 266.593 442.693 267.689 442.448 268.73Z" fill="#D8541B"/>
<path opacity="0.4" d="M442.448 268.73C442.192 269.105 441.887 269.441 441.541 269.73C441.182 270.051 440.852 270.402 440.555 270.78C439.916 271.57 439.464 272.497 439.233 273.49C439.076 274.25 439.076 275.03 438.938 275.79C438.704 277.087 438.096 278.284 437.192 279.23C436.225 280.131 434.998 280.691 433.692 280.83C429.571 281.57 426.474 280.19 425.735 278.99C424.995 277.79 425.784 276.62 428.328 274.99C429.189 274.562 429.938 273.936 430.517 273.16C431.376 271.742 431.934 270.157 432.156 268.508C432.379 266.859 432.26 265.181 431.809 263.58C431.697 263.311 431.653 263.017 431.68 262.725C431.708 262.434 431.806 262.154 431.966 261.91C432.18 261.686 432.439 261.512 432.726 261.4C434.253 260.759 435.957 260.695 437.528 261.22C437.621 261.251 437.707 261.298 437.784 261.36C437.867 261.484 437.912 261.631 437.912 261.78C437.952 262.048 438.047 262.304 438.191 262.532C438.336 262.759 438.526 262.953 438.75 263.1C438.782 263.11 438.817 263.11 438.849 263.1C438.887 263.087 438.921 263.062 438.947 263.03C439.166 262.79 439.361 262.529 439.529 262.25C439.613 262.087 439.726 261.941 439.864 261.82C439.991 261.721 440.142 261.657 440.301 261.634C440.46 261.611 440.622 261.631 440.771 261.69C440.697 262.625 440.926 263.559 441.422 264.35C441.59 264.66 441.866 265.35 442.024 265.66C442.541 266.593 442.693 267.689 442.448 268.73Z" fill="black"/>
<path d="M436.374 279.84C436.339 278.876 436.045 277.94 435.524 277.133C435.002 276.326 434.274 275.678 433.416 275.26C430.35 273.59 428.486 274.59 427.5 275.26C426.357 276.06 424.71 277.74 425.666 279.01C426.623 280.28 428.378 281.06 431.533 281.16C433.248 281.294 434.956 280.828 436.374 279.84Z" fill="#FAFAFA"/>
<path d="M426.376 254.89C426.584 255.315 426.636 255.8 426.524 256.26C426.277 256.79 425.232 257.5 422.954 258.67C421.923 259.297 421.086 260.205 420.539 261.29C419.529 262.924 418.044 264.199 416.289 264.94C413.905 265.917 411.286 266.14 408.776 265.58C405.65 264.94 405.433 263.06 405.433 263.06C405.433 263.06 405.305 261.3 406.084 261.06C406.863 260.82 426.376 254.89 426.376 254.89Z" fill="#263238"/>
<path d="M425.341 249.46C425.134 251.37 426.406 252.99 426.376 254.89C425.479 257.09 422.097 257.37 420.805 259.12C419.513 260.87 417.956 263.57 413.834 264.32C409.713 265.07 406.617 263.68 405.887 262.48C405.157 261.28 405.887 260.11 408.47 258.48C411.054 256.85 415.224 252.48 415.234 252.48C415.602 252.019 415.932 251.527 416.22 251.01C416.566 250.197 416.612 249.285 416.348 248.44C417.323 248.03 418.389 247.892 419.435 248.04C419.908 248.19 420.421 248.36 420.845 248.54C421.172 248.64 421.472 248.814 421.722 249.05C421.927 249.383 422.077 249.748 422.166 250.13C422.206 250.26 422.273 250.379 422.363 250.48C422.511 250.588 422.695 250.634 422.876 250.61C423.245 250.579 423.593 250.42 423.862 250.16C424.217 249.8 424.434 249.26 424.897 249.09C425.045 249.03 425.232 249.04 425.301 249.17C425.351 249.258 425.365 249.362 425.341 249.46Z" fill="#D8541B"/>
<path opacity="0.4" d="M425.341 249.46C425.134 251.37 426.406 252.99 426.376 254.89C425.479 257.09 422.097 257.37 420.805 259.12C419.513 260.87 417.956 263.57 413.834 264.32C409.713 265.07 406.617 263.68 405.887 262.48C405.157 261.28 405.887 260.11 408.47 258.48C411.054 256.85 415.224 252.48 415.234 252.48C415.602 252.019 415.932 251.527 416.22 251.01C416.566 250.197 416.612 249.285 416.348 248.44C417.323 248.03 418.389 247.892 419.435 248.04C419.908 248.19 420.421 248.36 420.845 248.54C421.172 248.64 421.472 248.814 421.722 249.05C421.927 249.383 422.077 249.748 422.166 250.13C422.206 250.26 422.273 250.379 422.363 250.48C422.511 250.588 422.695 250.634 422.876 250.61C423.245 250.579 423.593 250.42 423.862 250.16C424.217 249.8 424.434 249.26 424.897 249.09C425.045 249.03 425.232 249.04 425.301 249.17C425.351 249.258 425.365 249.362 425.341 249.46Z" fill="black"/>
<path d="M416.516 263.38C416.481 262.414 416.188 261.477 415.666 260.668C415.145 259.859 414.416 259.21 413.558 258.79C410.491 257.13 408.628 258.12 407.642 258.79C406.498 259.59 404.852 261.28 405.808 262.54C406.764 263.8 408.519 264.59 411.724 264.69C413.421 264.814 415.11 264.352 416.516 263.38Z" fill="#FAFAFA"/>
<path d="M441.64 162.78C436.71 160.14 435.428 150.88 436.039 146.37L433.397 146.09L421.515 145.25C419.443 148.194 417.527 151.248 415.777 154.4C414.887 156.219 414.564 158.27 414.851 160.279C415.138 162.289 416.022 164.162 417.384 165.65L417.907 172.6C417.907 172.6 417.068 177.05 416.132 181.24C418.538 186.24 430.557 190.36 443.109 183.43C442.399 178.73 441.373 176.08 439.401 171.43C439.401 171.46 440.21 168.44 441.64 162.78Z" fill="#F5F5F5"/>
<path d="M468.242 144.85C468.242 138.06 466.339 136.18 463.617 135.24C459.269 133.75 458.806 135.42 460.038 138.85C460.567 140.277 460.899 141.771 461.024 143.29C460.602 142.664 460.098 142.098 459.525 141.61C459.235 141.335 458.853 141.182 458.456 141.182C458.058 141.182 457.676 141.335 457.386 141.61C457.159 141.87 457.849 142.38 458.421 143.61C459.151 145.24 458.914 146.2 459.673 147.98C459.949 148.65 460.452 149.26 460.324 149.98C459.582 153.779 458.594 157.524 457.366 161.19C454.95 159.19 449.705 154.85 447.644 153.05C445.518 151.057 443.273 149.2 440.92 147.49C439.402 146.678 437.705 146.275 435.99 146.32C435.25 149.54 434.777 155.27 436.976 158.72C438.06 160.45 439.805 162.82 441.639 162.79L442.024 161.33L449.715 166.67C449.715 166.67 451.332 167.82 455.286 170.11C459.239 172.4 461.744 172.4 463.174 171.11C464.16 170.24 464.988 167.87 465.924 162.16C466.427 159.37 466.91 156.16 467.463 152.82C467.881 150.182 468.141 147.52 468.242 144.85Z" fill="#FFBDA7"/>
<path d="M442.014 161.38L438.938 159.02L441.767 162.34L442.014 161.38Z" fill="#F0997A"/>
<path d="M427.175 140.61C428.886 140.611 430.581 140.271 432.162 139.607C433.744 138.944 435.181 137.971 436.391 136.744C437.602 135.518 438.562 134.061 439.217 132.458C439.872 130.854 440.21 129.136 440.21 127.4V126.54C440.207 123.297 438.936 120.188 436.675 117.895C434.414 115.602 431.348 114.313 428.151 114.31H426.179C422.981 114.31 419.914 115.599 417.652 117.892C415.391 120.186 414.12 123.296 414.12 126.54V127.4C414.12 129.137 414.458 130.858 415.114 132.462C415.771 134.067 416.733 135.525 417.946 136.752C419.158 137.979 420.598 138.951 422.181 139.613C423.765 140.275 425.462 140.614 427.175 140.61Z" fill="#263238"/>
<path d="M442.26 118.23C440.712 120.94 436.63 121.48 433.15 119.44C429.669 117.4 428.082 113.54 429.62 110.83C431.158 108.12 435.25 107.58 438.73 109.62C442.211 111.66 443.798 115.52 442.26 118.23Z" fill="#263238"/>
<path d="M418.734 120.54C417.364 121.81 415.648 124.54 415.776 132.67C415.895 139.53 417.985 141.23 419.04 141.73C420.095 142.23 422.136 141.93 424.118 141.6V146.54C424.118 146.54 421.85 148.93 422.718 151.38C423.349 153.17 426.741 152.53 429.294 150.68C432.341 148.46 432.686 146.8 432.686 146.8L432.775 136.6C432.775 136.6 433.929 137.8 435.92 135.98C437.557 134.49 438.119 131.98 436.857 130.58C436.532 130.257 436.134 130.019 435.698 129.887C435.262 129.756 434.8 129.734 434.354 129.825C433.908 129.916 433.49 130.116 433.137 130.408C432.785 130.7 432.508 131.075 432.331 131.5C429.449 131.271 426.648 130.418 424.118 129C420.144 126.74 419.168 123.16 418.734 120.54Z" fill="#FFBDA7"/>
<path d="M418.586 130.65C418.594 130.761 418.581 130.872 418.547 130.977C418.512 131.082 418.458 131.179 418.386 131.263C418.315 131.346 418.228 131.415 418.13 131.464C418.033 131.513 417.926 131.543 417.817 131.55C417.597 131.556 417.383 131.473 417.222 131.319C417.062 131.166 416.967 130.954 416.96 130.73C416.943 130.616 416.95 130.499 416.98 130.387C417.011 130.275 417.064 130.172 417.137 130.082C417.209 129.992 417.299 129.919 417.402 129.867C417.504 129.815 417.615 129.785 417.729 129.78C417.844 129.774 417.958 129.793 418.064 129.835C418.171 129.876 418.268 129.94 418.348 130.022C418.429 130.104 418.492 130.203 418.533 130.311C418.574 130.419 418.592 130.535 418.586 130.65Z" fill="#263238"/>
<path d="M425.064 130.65C425.073 130.761 425.059 130.872 425.025 130.977C424.99 131.082 424.936 131.179 424.864 131.262C424.793 131.346 424.706 131.415 424.608 131.464C424.511 131.513 424.404 131.543 424.295 131.55C424.127 131.566 423.958 131.53 423.809 131.448C423.661 131.365 423.541 131.239 423.463 131.087C423.386 130.934 423.355 130.761 423.376 130.591C423.396 130.421 423.466 130.26 423.577 130.131C423.688 130.001 423.834 129.908 423.998 129.863C424.161 129.819 424.334 129.825 424.494 129.881C424.654 129.937 424.794 130.04 424.895 130.177C424.997 130.314 425.056 130.479 425.064 130.65Z" fill="#263238"/>
<path d="M424.079 136.5L421.84 137.24C421.874 137.396 421.94 137.544 422.033 137.673C422.125 137.802 422.244 137.911 422.38 137.991C422.516 138.072 422.667 138.123 422.824 138.142C422.98 138.161 423.139 138.147 423.29 138.1C423.598 137.986 423.852 137.757 423.999 137.459C424.145 137.162 424.174 136.818 424.079 136.5Z" fill="#F0997A"/>
<path d="M416.634 128.1L418.291 126.9C418.222 126.788 418.131 126.691 418.024 126.614C417.918 126.538 417.797 126.483 417.669 126.455C417.542 126.426 417.41 126.423 417.281 126.446C417.153 126.47 417.03 126.519 416.92 126.59C416.699 126.763 416.548 127.012 416.495 127.29C416.442 127.569 416.492 127.857 416.634 128.1Z" fill="#263238"/>
<path d="M432.322 130.69V133.59C432.139 133.598 431.957 133.568 431.786 133.502C431.615 133.437 431.459 133.336 431.328 133.207C431.197 133.077 431.093 132.922 431.023 132.751C430.953 132.579 430.919 132.395 430.922 132.21C430.918 131.823 431.062 131.449 431.322 131.166C431.583 130.884 431.941 130.713 432.322 130.69Z" fill="#263238"/>
<path d="M421.022 129.83L421.042 135.45L418.458 134.59L421.022 129.83Z" fill="#F0997A"/>
<path d="M424.128 141.6C426.218 141.32 430.527 140.04 431.198 138.25C430.929 139.147 430.4 139.942 429.679 140.53C428.397 141.68 424.138 142.98 424.138 142.98L424.128 141.6Z" fill="#F0997A"/>
<path d="M256.182 291.58C256.695 289.17 256.182 284.98 253.274 284.32C253.08 284.265 252.876 284.265 252.682 284.32C252.382 284.478 252.152 284.746 252.041 285.07C251.055 287.18 250.71 289.73 249.182 291.85H248.472C248.146 292.24 247.713 292.33 247.693 291.79C247.723 291.295 247.822 290.807 247.989 290.34C248.235 289.45 248.649 288.34 248.117 287.48C248.056 287.362 247.967 287.261 247.857 287.189C247.747 287.116 247.62 287.073 247.489 287.065C247.357 287.057 247.226 287.084 247.108 287.143C246.99 287.201 246.889 287.29 246.815 287.4C245.774 288.851 244.835 290.375 244.005 291.96C243.236 293.51 243.098 294.51 242.083 295.91C240.406 298.21 238.671 299.56 235.378 301.86C232.085 304.16 224.384 308.27 224.611 308.15L224.009 305.73L215.806 308.33C215.806 308.33 217.433 318.5 219.336 319.33C220.815 320.99 224.571 319.87 230.606 316.07C234.135 313.85 236.522 311.9 241.185 308.44C243.897 306.44 246.579 304.21 249.073 301.94C250.584 300.595 251.953 299.094 253.155 297.46C254.553 295.724 255.563 293.701 256.113 291.53L256.182 291.58Z" fill="#FFA8A7"/>
<path d="M209.791 284.92C209.791 284.92 214.672 284.16 217.798 286.97C220.923 289.78 224.808 307.2 224.808 307.2C224.808 307.2 218.892 312.33 213.785 310.86C208.677 309.39 209.791 284.92 209.791 284.92Z" fill="#06E124"/>
<path opacity="0.3" d="M209.791 284.92C209.791 284.92 214.672 284.16 217.798 286.97C220.923 289.78 224.808 307.2 224.808 307.2C224.808 307.2 218.892 312.33 213.785 310.86C208.677 309.39 209.791 284.92 209.791 284.92Z" fill="black"/>
<path d="M187.458 425.12H194.745L195.711 412.03L187.458 413.34V425.12Z" fill="#FFA8A7"/>
<path d="M212.67 417.79L220.657 418.07L220.785 404.16L211.517 403.61L212.67 417.79Z" fill="#FFA8A7"/>
<path d="M187.458 332.4C186.541 340.99 187.863 375.86 187.863 375.86C187.715 377.66 185.999 380.86 185.891 387.36C185.694 396.77 187.478 418.25 187.478 418.25C190.032 419.13 192.81 419.059 195.317 418.05C195.317 418.05 199.409 387.73 200.562 378.41C201.548 370.28 204.506 349 204.506 349L208.874 376.64C208.392 379.95 208.27 383.303 208.51 386.64C208.815 390.95 212.03 411.44 212.03 411.44C214.923 412.324 218.01 412.324 220.904 411.44C220.904 411.44 221.347 379.07 221.416 375.12C221.505 370.61 220.371 331.56 220.371 331.56L187.458 332.4Z" fill="#455A64"/>
<path d="M204.447 349C207.983 347.764 211.245 345.838 214.051 343.33C214.051 343.33 212.316 346.63 207.149 349.7L208.381 373.93L204.447 349Z" fill="#37474F"/>
<path d="M203.599 438.87C203.816 439.61 203.781 440.402 203.501 441.12C203.215 441.58 201.529 443.01 198.571 443.22C195.613 443.43 193.168 443.04 191.491 441.96C190.763 441.581 190.139 441.025 189.676 440.34C189.213 439.656 188.926 438.865 188.839 438.04C188.681 436.39 188.839 434.8 188.09 433.53C187.34 432.26 186.236 431.04 185.989 430.4C185.695 429.3 185.695 428.14 185.989 427.04L203.599 438.87Z" fill="#37474F"/>
<path d="M195.78 424.47C195.798 425.097 195.911 425.718 196.115 426.31C196.55 427.587 197.136 428.806 197.861 429.94C198.218 430.535 198.616 431.103 199.054 431.64C199.911 432.64 201.026 433.54 201.903 434.54C202.872 435.486 203.495 436.738 203.668 438.09C203.786 440.36 201.351 441.14 199.487 441.47C197.462 441.833 195.383 441.728 193.404 441.16C192.364 440.886 191.424 440.314 190.697 439.512C189.97 438.711 189.485 437.714 189.302 436.64C189.203 436.01 189.243 435.36 189.164 434.73C188.918 433.273 188.322 431.899 187.429 430.73C186.906 430.061 186.457 429.337 186.088 428.57C185.506 427.17 185.979 425.57 186.344 424.18C186.669 422.97 187.034 421.61 187.458 421.72C187.458 422.35 187.458 422.41 187.892 422.84C188.326 423.27 188.484 424.18 189.075 424.66C188.884 424.136 188.745 423.593 188.661 423.04C188.622 422.818 188.668 422.589 188.789 422.4C188.984 422.225 189.217 422.098 189.47 422.03C190.354 421.731 191.266 421.52 192.191 421.4C193.069 421.255 193.965 421.255 194.843 421.4C195.103 421.453 195.338 421.59 195.514 421.79C195.67 422.02 195.752 422.292 195.75 422.57C195.79 422.93 195.76 423.87 195.78 424.47Z" fill="#455A64"/>
<path d="M198.186 430.41C197.358 429.78 195.485 429.77 194.469 429.88C193.432 429.962 192.432 430.306 191.56 430.88C191.433 430.972 191.279 431.015 191.124 431.002C190.969 430.989 190.823 430.921 190.712 430.81C190.642 430.746 190.586 430.666 190.55 430.577C190.514 430.488 190.498 430.392 190.504 430.296C190.51 430.2 190.537 430.106 190.583 430.022C190.629 429.938 190.694 429.866 190.771 429.81C191.725 429.1 192.856 428.674 194.035 428.58C196.549 428.41 197.289 428.84 197.289 428.84C197.289 428.84 198.413 429.66 198.186 430.41Z" fill="#F5F5F5"/>
<path d="M200.079 432.74C199.034 432.11 196.973 432.2 195.958 432.31C194.936 432.416 193.96 432.792 193.128 433.4C193 433.494 192.843 433.539 192.686 433.526C192.529 433.514 192.381 433.444 192.27 433.33C192.198 433.266 192.142 433.186 192.105 433.097C192.069 433.007 192.053 432.91 192.06 432.813C192.067 432.716 192.095 432.622 192.144 432.539C192.192 432.455 192.259 432.384 192.339 432.33C193.306 431.58 194.46 431.119 195.672 431C198.186 430.82 198.846 431.34 198.846 431.34C199.144 431.463 199.409 431.652 199.623 431.895C199.837 432.138 199.993 432.427 200.079 432.74Z" fill="#F5F5F5"/>
<path d="M193.01 426.21C194.067 426.025 195.153 426.118 196.165 426.48C196.609 426.73 196.904 427.48 196.618 427.62C195.73 427.262 194.769 427.129 193.818 427.23C192.875 427.326 191.955 427.583 191.097 427.99C190.88 428.09 190.633 428.22 190.407 428.35C190.336 428.391 190.258 428.417 190.177 428.426C190.096 428.435 190.014 428.428 189.937 428.403C189.859 428.379 189.787 428.338 189.725 428.284C189.664 428.231 189.614 428.164 189.578 428.09C189.519 427.963 189.509 427.818 189.549 427.683C189.589 427.548 189.677 427.433 189.795 427.36C190.775 426.751 191.87 426.359 193.01 426.21Z" fill="#F5F5F5"/>
<path d="M236.324 427.52C236.534 428.178 236.492 428.893 236.206 429.52C235.93 430.12 232.883 431.86 228.772 431.58C225.728 431.371 222.796 430.335 220.282 428.58C218.696 427.641 216.883 427.17 215.047 427.22C213.015 427.1 210.343 426.07 209.89 425.11C209.659 424.246 209.683 423.332 209.959 422.48L236.324 427.52Z" fill="#37474F"/>
<path d="M219.74 414.52L220.066 414.45C220.244 414.41 220.429 414.41 220.608 414.45C220.808 414.51 220.984 414.632 221.111 414.8C221.517 415.319 221.87 415.879 222.166 416.47C223.024 417.89 224.838 419.07 226.81 420.15C228.151 420.88 229.462 421.45 230.852 422.08C232.243 422.71 234.146 423.08 235.25 423.88C235.657 424.154 235.99 424.525 236.221 424.961C236.452 425.398 236.573 425.885 236.573 426.38C236.573 426.875 236.452 427.362 236.221 427.799C235.99 428.235 235.657 428.606 235.25 428.88C232.069 430.346 228.473 430.598 225.124 429.59C222.738 428.91 220.095 426.32 216.97 426.08C214.998 425.92 211.221 425.35 209.939 423.82C209.466 423.14 210.097 420.99 210.62 419.13C211.182 417.13 211.724 413.93 212.385 414.13C212.38 414.275 212.409 414.419 212.469 414.551C212.529 414.683 212.618 414.799 212.73 414.89C213.001 415.121 213.284 415.338 213.578 415.54C214.037 416.004 214.409 416.549 214.672 417.15C214.785 417.415 214.983 417.634 215.234 417.77C215.569 417.9 215.826 417.68 216.122 417.54C216.493 417.369 216.914 417.341 217.305 417.46C217.265 417.059 217.196 416.661 217.098 416.27C217.063 416.142 217.063 416.008 217.098 415.88C217.152 415.759 217.242 415.658 217.354 415.59C218.068 415.07 218.88 414.705 219.74 414.52Z" fill="#455A64"/>
<path d="M224.946 419C224.804 418.724 224.596 418.488 224.341 418.314C224.087 418.139 223.793 418.031 223.487 418C222.2 418.007 220.957 418.482 219.987 419.34C219.892 419.418 219.818 419.518 219.771 419.631C219.724 419.744 219.705 419.867 219.715 419.99C219.726 420.112 219.766 420.23 219.833 420.333C219.899 420.436 219.989 420.521 220.095 420.58C220.228 420.658 220.381 420.69 220.533 420.674C220.686 420.658 220.829 420.594 220.943 420.49C222.034 419.483 223.471 418.948 224.946 419Z" fill="#F5F5F5"/>
<path d="M227.766 420.61C227.568 420.329 227.306 420.1 227.002 419.943C226.698 419.787 226.361 419.707 226.021 419.71C224.626 419.769 223.286 420.277 222.195 421.16C222.107 421.237 222.038 421.334 221.995 421.443C221.951 421.553 221.934 421.671 221.944 421.788C221.955 421.906 221.993 422.019 222.056 422.118C222.118 422.218 222.203 422.301 222.303 422.36C222.431 422.433 222.578 422.462 222.724 422.444C222.869 422.426 223.005 422.362 223.112 422.26C223.718 421.651 224.45 421.187 225.255 420.901C226.06 420.616 226.918 420.516 227.766 420.61Z" fill="#F5F5F5"/>
<path d="M230.852 422.05C230.628 421.79 230.35 421.581 230.039 421.44C229.727 421.298 229.389 421.227 229.048 421.23C227.702 421.311 226.417 421.826 225.38 422.7C225.292 422.776 225.222 422.873 225.178 422.982C225.134 423.09 225.115 423.208 225.125 423.326C225.135 423.443 225.172 423.556 225.233 423.656C225.295 423.756 225.379 423.84 225.479 423.9C225.608 423.973 225.757 424.003 225.904 423.985C226.051 423.967 226.189 423.902 226.297 423.8C226.869 423.168 227.579 422.681 228.37 422.377C229.161 422.073 230.011 421.961 230.852 422.05Z" fill="#F5F5F5"/>
<path d="M199.507 285.13C196.932 285.499 194.389 286.078 191.905 286.86C190.15 287.49 189.775 289.51 189.401 291.18C188.208 296.52 188.001 307.72 188.001 307.72L187.015 336.92C191.462 340.21 211.27 343.17 220.647 336.23C220.647 336.23 218.941 300.76 218.941 295.92C218.941 291.08 216.289 285.28 208.973 284.85L199.507 285.13Z" fill="#FAFAFA"/>
<path d="M193.089 261.33C193.553 260.843 194.157 260.518 194.814 260.4L192.566 259.17C192.672 258.947 192.821 258.747 193.004 258.584C193.188 258.42 193.402 258.296 193.634 258.219C193.866 258.141 194.111 258.112 194.355 258.133C194.598 258.154 194.835 258.224 195.051 258.34C195.467 258.584 195.78 258.974 195.933 259.436C196.085 259.899 196.066 260.401 195.879 260.85C195.879 260.85 205.739 254.78 209.338 254.78C214.218 254.78 218.981 256.47 217.334 263.55C216.22 268.38 214.218 272.73 209.338 272.73C205.492 272.73 197.811 279.54 197.811 279.54C197.06 279.307 196.428 278.787 196.047 278.09C195.475 276.97 194.075 270.14 194.075 270.14C192.566 266.39 191.905 262.55 193.089 261.33Z" fill="#263238"/>
<path d="M197.545 270.45C197.003 270.78 196.234 269.73 195.573 269.02C195.311 268.713 194.976 268.479 194.599 268.341C194.223 268.202 193.817 268.163 193.422 268.229C193.027 268.294 192.654 268.46 192.341 268.713C192.027 268.965 191.782 269.295 191.629 269.67C190.525 272.04 192.615 275.17 194.311 275.67C197.269 276.61 197.713 274.67 197.713 274.67L197.93 285.82C198.848 286.989 200.056 287.889 201.429 288.429C202.803 288.968 204.294 289.127 205.749 288.89C207.721 288.54 209.446 287.42 207.563 285.21V282C208.867 282.21 210.188 282.28 211.507 282.21C213.686 281.87 215.056 280.13 215.717 277.74C216.772 273.9 217.176 270.8 216.279 263.26C215.293 254.99 205.808 254.9 200.69 258.17C195.573 261.44 197.545 270.45 197.545 270.45Z" fill="#FFA8A7"/>
<path d="M216.151 259.54C214.366 261.01 213.193 261.8 209.742 261.93C207.368 262.016 205.007 261.547 202.84 260.56C202.731 261.397 202.389 262.184 201.854 262.83C201.169 263.538 200.342 264.087 199.428 264.44C199.241 265.93 199.251 267.84 199.152 269.34C199.152 269.84 199.152 272.47 197.949 271.72C197.556 271.377 197.208 270.984 196.914 270.55C196.495 270.01 196.04 269.499 195.553 269.02C194.627 268.16 195.83 260.35 195.83 260.35C195.507 259.663 195.396 258.893 195.51 258.14C195.625 257.388 195.959 256.688 196.47 256.13C197.752 254.71 199.537 252.96 205.344 253.66C209.486 254.15 213.992 255.46 217.63 253.66C218.143 255.77 217.433 258.49 216.151 259.54Z" fill="#263238"/>
<path d="M207.553 282C207.553 282 202.692 281 200.996 280.09C199.999 279.564 199.181 278.745 198.649 277.74C198.905 278.748 199.357 279.694 199.981 280.52C201.223 282.13 207.553 283.31 207.553 283.31V282Z" fill="#F28F8F"/>
<path d="M205.601 266.27L203.303 267.17C203.189 266.852 203.202 266.501 203.338 266.191C203.474 265.882 203.723 265.638 204.033 265.51C204.185 265.454 204.346 265.428 204.508 265.436C204.67 265.444 204.829 265.484 204.975 265.555C205.121 265.626 205.252 265.725 205.359 265.848C205.467 265.971 205.549 266.115 205.601 266.27Z" fill="#263238"/>
<path d="M206.902 275.66L209.545 276.66C209.488 276.841 209.396 277.008 209.274 277.151C209.152 277.295 209.003 277.411 208.835 277.495C208.668 277.578 208.485 277.626 208.298 277.635C208.112 277.645 207.925 277.616 207.75 277.55C207.396 277.407 207.11 277.13 206.952 276.778C206.794 276.426 206.776 276.025 206.902 275.66Z" fill="#F28F8F"/>
<path d="M215.727 266.73L213.459 265.73C213.516 265.578 213.603 265.439 213.715 265.321C213.827 265.204 213.962 265.111 214.11 265.049C214.259 264.986 214.419 264.955 214.58 264.957C214.741 264.959 214.899 264.994 215.046 265.06C215.35 265.197 215.589 265.446 215.716 265.757C215.843 266.068 215.846 266.417 215.727 266.73Z" fill="#263238"/>
<path d="M210.176 268.47L210.521 274.91L213.834 273.76L210.176 268.47Z" fill="#F28F8F"/>
<path d="M207.06 269C207.061 269.177 207.012 269.35 206.918 269.498C206.824 269.646 206.689 269.764 206.53 269.836C206.372 269.908 206.196 269.932 206.024 269.905C205.852 269.878 205.692 269.8 205.563 269.682C205.433 269.564 205.341 269.411 205.296 269.24C205.251 269.07 205.256 268.89 205.31 268.722C205.364 268.555 205.466 268.407 205.601 268.296C205.737 268.186 205.901 268.118 206.074 268.1C206.198 268.091 206.322 268.107 206.439 268.147C206.557 268.188 206.665 268.252 206.757 268.336C206.849 268.421 206.924 268.523 206.976 268.637C207.028 268.751 207.056 268.875 207.06 269Z" fill="#263238"/>
<path d="M214.721 269C214.722 269.177 214.673 269.349 214.579 269.498C214.485 269.646 214.35 269.764 214.192 269.836C214.033 269.908 213.857 269.932 213.685 269.905C213.513 269.877 213.353 269.8 213.224 269.682C213.095 269.564 213.002 269.411 212.957 269.24C212.912 269.07 212.917 268.89 212.971 268.722C213.026 268.555 213.127 268.407 213.262 268.296C213.398 268.186 213.562 268.118 213.735 268.1C213.859 268.089 213.984 268.104 214.102 268.144C214.22 268.184 214.329 268.248 214.421 268.333C214.514 268.417 214.588 268.52 214.64 268.635C214.691 268.75 214.719 268.874 214.721 269Z" fill="#263238"/>
<path d="M223.378 325.27C223.64 324.492 223.64 323.648 223.378 322.87C223.298 322.602 223.117 322.376 222.876 322.24C222.713 322.189 222.541 322.172 222.371 322.191C222.202 322.21 222.038 322.264 221.89 322.35C220.726 322.86 219.661 323.57 218.508 324.07C217.371 324.651 216.067 324.803 214.83 324.5C214.904 324.259 215.066 324.055 215.283 323.93L216.752 322.78C217.384 322.29 218.084 321.66 218.044 320.85C218.047 320.743 218.022 320.637 217.972 320.542C217.921 320.447 217.848 320.367 217.758 320.31C217.588 320.255 217.406 320.255 217.236 320.31C215.5 320.701 213.788 321.192 212.108 321.78C210.582 322.419 209.014 322.95 207.415 323.37C204.654 323.92 202.741 323.82 198.778 323.27C194.814 322.72 190.811 321.2 187.054 320.12C188.287 313.36 191.817 299.51 192.438 294.42C193.207 288.11 190.722 287.76 190.722 287.76C186.206 288.32 183.357 288.81 179.531 302.24C177.924 307.88 175.518 319.46 175.429 324.59C175.429 326.83 178.92 328.59 185.901 329.93C189.983 330.71 193.069 330.93 198.778 331.57C203.402 332.08 206.173 332.1 208.184 332.15C209.71 332.228 211.24 332.182 212.759 332.01C214.553 331.804 216.318 331.398 218.024 330.8C219.803 330.234 221.324 329.042 222.314 327.44C222.774 326.775 223.133 326.044 223.378 325.27Z" fill="#FFA8A7"/>
<path d="M191.905 286.86C191.905 286.86 188.011 286.6 185.851 288.24C180.685 292.19 179.541 300.85 177.253 309.62C177.253 309.62 180.744 314.88 188.592 314.38L192.477 297.91C192.477 297.91 195.228 290.89 191.905 286.86Z" fill="#06E124"/>
<path opacity="0.3" d="M191.905 286.86C191.905 286.86 188.011 286.6 185.851 288.24C180.685 292.19 179.541 300.85 177.253 309.62C177.253 309.62 180.744 314.88 188.592 314.38L192.477 297.91C192.477 297.91 195.228 290.89 191.905 286.86Z" fill="black"/>
<path d="M262.976 286.51C262.976 286.51 266.092 301.56 266.161 306.79C266.23 311.71 274.049 293.47 274.315 282.18C274.315 282.18 265.757 285.57 262.976 286.51Z" fill="#06E124"/>
<path d="M282.134 279.14C282.134 279.14 286.552 295.42 286.078 300.31C285.605 305.2 293.966 285.31 294.163 273.97C294.124 274 286.049 277.33 282.134 279.14Z" fill="#455A64"/>
<path d="M322.166 260.69C322.166 260.69 325.923 274.59 325.42 279.48C324.917 284.37 332.825 265.8 332.992 254.48C332.992 254.51 325.154 259 322.166 260.69Z" fill="#455A64"/>
<path d="M303.383 269.76C303.383 269.76 306.262 284.49 305.522 289.35C304.783 294.21 313.578 275.46 314.298 264.19C314.298 264.19 307.248 268 303.383 269.76Z" fill="#06E124"/>
<path d="M341.393 249.93C341.393 249.93 344.903 263.64 344.41 268.54C343.917 273.44 351.726 255.03 351.855 243.73C351.855 243.73 345.87 247.47 341.393 249.93Z" fill="#06E124"/>
<path d="M248.581 290.931C249.054 290.771 249.517 290.661 249.991 290.521C249.769 290.984 249.505 291.426 249.202 291.841L247.851 292.291L247.545 291.771C247.801 291.393 248.161 291.101 248.581 290.931Z" fill="#455A64"/>
<path d="M461.024 143.29C458.668 147.07 443.651 170.35 412.779 198.5C382.894 225.76 331.829 263.2 256.36 289.41C256.351 289.075 256.318 288.741 256.262 288.41C331.425 262.26 382.292 224.97 412.05 197.81C445.574 167.26 460.364 142.6 460.492 142.36L460.807 141.88L460.867 142.27C460.867 142.27 461.044 143.3 461.024 143.29Z" fill="#455A64"/>
<path d="M249.192 291.86L249.557 291.32C249.43 291.161 249.258 291.044 249.064 290.987C248.87 290.93 248.663 290.934 248.472 291C245.849 292.81 245.445 296.12 245.908 299.11C246.372 302.1 247.713 305.17 247.831 308.32C248.068 314.76 243.729 320.22 243.364 326.57C243.118 331.08 244.35 335.57 245.208 339.92C245.208 340.08 245.376 339.99 245.356 339.87C244.893 335.87 244.124 331.96 244.252 327.95C244.503 324.66 245.307 321.437 246.628 318.42C247.853 315.689 248.652 312.781 248.995 309.8C249.182 306.63 248.117 303.71 247.407 300.68C246.98 299.089 246.82 297.436 246.934 295.79C247.008 295.009 247.249 294.253 247.638 293.574C248.028 292.896 248.558 292.311 249.192 291.86Z" fill="#455A64"/>
</svg>
