<svg width="24" height="25" viewBox="0 0 24 25" fill="none" xmlns="http://www.w3.org/2000/svg">
<path d="M15.325 16.7853C15.1417 16.5686 15.05 16.3228 15.05 16.0478C15.05 15.7728 15.1417 15.5436 15.325 15.3603L17.175 13.5103H10C9.71667 13.5103 9.47917 13.4144 9.2875 13.2228C9.09583 13.0311 9 12.7936 9 12.5103C9 12.2269 9.09583 11.9894 9.2875 11.7978C9.47917 11.6061 9.71667 11.5103 10 11.5103H17.175L15.325 9.66025C15.125 9.46025 15.025 9.22275 15.025 8.94775C15.025 8.67275 15.125 8.43525 15.325 8.23525C15.5083 8.03525 15.7375 7.93525 16.0125 7.93525C16.2875 7.93525 16.5167 8.02692 16.7 8.21025L20.3 11.8103C20.4 11.9103 20.4708 12.0186 20.5125 12.1353C20.5542 12.2519 20.575 12.3769 20.575 12.5103C20.575 12.6436 20.5542 12.7686 20.5125 12.8853C20.4708 13.0019 20.4 13.1103 20.3 13.2103L16.7 16.8103C16.4833 17.0269 16.2458 17.1228 15.9875 17.0978C15.7292 17.0728 15.5083 16.9686 15.325 16.7853ZM5 21.5103C4.45 21.5103 3.97917 21.3144 3.5875 20.9228C3.19583 20.5311 3 20.0603 3 19.5103V5.51025C3 4.96025 3.19583 4.48942 3.5875 4.09775C3.97917 3.70609 4.45 3.51025 5 3.51025H11C11.2833 3.51025 11.5208 3.60609 11.7125 3.79775C11.9042 3.98942 12 4.22692 12 4.51025C12 4.79359 11.9042 5.03109 11.7125 5.22275C11.5208 5.41442 11.2833 5.51025 11 5.51025H5V19.5103H11C11.2833 19.5103 11.5208 19.6061 11.7125 19.7978C11.9042 19.9894 12 20.2269 12 20.5103C12 20.7936 11.9042 21.0311 11.7125 21.2228C11.5208 21.4144 11.2833 21.5103 11 21.5103H5Z" fill="#D8541B"/>
</svg>
