<svg width="24" height="25" viewBox="0 0 24 25" fill="none" xmlns="http://www.w3.org/2000/svg">
<path d="M5.00001 6.51025C4.71668 6.51025 4.47918 6.41442 4.28751 6.22275C4.09585 6.03109 4.00001 5.79359 4.00001 5.51025C4.00001 5.22692 4.09585 4.98942 4.28751 4.79775C4.47918 4.60609 4.71668 4.51025 5.00001 4.51025H19C19.2833 4.51025 19.5208 4.60609 19.7125 4.79775C19.9042 4.98942 20 5.22692 20 5.51025C20 5.79359 19.9042 6.03109 19.7125 6.22275C19.5208 6.41442 19.2833 6.51025 19 6.51025H5.00001ZM5.00001 20.5103C4.71668 20.5103 4.47918 20.4144 4.28751 20.2228C4.09585 20.0311 4.00001 19.7936 4.00001 19.5103V14.5103H3.82501C3.50835 14.5103 3.25001 14.3894 3.05001 14.1478C2.85001 13.9061 2.78335 13.6269 2.85001 13.3103L3.85001 8.31025C3.90001 8.07692 4.01668 7.88525 4.20001 7.73525C4.38335 7.58525 4.59168 7.51025 4.82501 7.51025H19.175C19.4083 7.51025 19.6167 7.58525 19.8 7.73525C19.9833 7.88525 20.1 8.07692 20.15 8.31025L21.15 13.3103C21.2167 13.6269 21.15 13.9061 20.95 14.1478C20.75 14.3894 20.4917 14.5103 20.175 14.5103H20V19.5103C20 19.7936 19.9042 20.0311 19.7125 20.2228C19.5208 20.4144 19.2833 20.5103 19 20.5103C18.7167 20.5103 18.4792 20.4144 18.2875 20.2228C18.0958 20.0311 18 19.7936 18 19.5103V14.5103H14V19.5103C14 19.7936 13.9042 20.0311 13.7125 20.2228C13.5208 20.4144 13.2833 20.5103 13 20.5103H5.00001ZM6.00001 18.5103H12V14.5103H6.00001V18.5103ZM5.05001 12.5103H18.95L18.35 9.51025H5.65001L5.05001 12.5103Z" fill="#111111"/>
</svg>
