<svg width="40" height="40" viewBox="0 0 40 40" fill="none" xmlns="http://www.w3.org/2000/svg">
<path d="M15.24 10H13.34C11.15 10 10 11.15 10 13.33V15.23C10 17.41 11.15 18.56 13.33 18.56H15.23C17.41 18.56 18.56 17.41 18.56 15.23V13.33C18.57 11.15 17.42 10 15.24 10Z" fill="#0D062D"/>
<path opacity="0.4" d="M26.6704 10H24.7704C22.5904 10 21.4404 11.15 21.4404 13.33V15.23C21.4404 17.41 22.5904 18.56 24.7704 18.56H26.6704C28.8504 18.56 30.0004 17.41 30.0004 15.23V13.33C30.0004 11.15 28.8504 10 26.6704 10Z" fill="#0D062D"/>
<path d="M26.6704 21.4301H24.7704C22.5904 21.4301 21.4404 22.5801 21.4404 24.7601V26.6601C21.4404 28.8401 22.5904 29.9901 24.7704 29.9901H26.6704C28.8504 29.9901 30.0004 28.8401 30.0004 26.6601V24.7601C30.0004 22.5801 28.8504 21.4301 26.6704 21.4301Z" fill="#0D062D"/>
<path opacity="0.4" d="M15.24 21.4301H13.34C11.15 21.4301 10 22.5801 10 24.7601V26.6601C10 28.8501 11.15 30.0001 13.33 30.0001H15.23C17.41 30.0001 18.56 28.8501 18.56 26.6701V24.7701C18.57 22.5801 17.42 21.4301 15.24 21.4301Z" fill="#0D062D"/>
</svg>
