<svg width="20" height="20" viewBox="0 0 20 20" fill="none" xmlns="http://www.w3.org/2000/svg">
<path d="M9.99996 9.99998C10.4602 9.99998 10.8333 9.62688 10.8333 9.16665C10.8333 8.70641 10.4602 8.33331 9.99996 8.33331C9.53972 8.33331 9.16663 8.70641 9.16663 9.16665C9.16663 9.62688 9.53972 9.99998 9.99996 9.99998Z" fill="#878787" stroke="#878787" stroke-width="5"/>
<path d="M13.3333 9.99998C13.7936 9.99998 14.1667 9.62688 14.1667 9.16665C14.1667 8.70641 13.7936 8.33331 13.3333 8.33331C12.8731 8.33331 12.5 8.70641 12.5 9.16665C12.5 9.62688 12.8731 9.99998 13.3333 9.99998Z" fill="#878787" stroke="#878787" stroke-width="5"/>
<path d="M6.66659 9.99998C7.12682 9.99998 7.49992 9.62688 7.49992 9.16665C7.49992 8.70641 7.12682 8.33331 6.66659 8.33331C6.20635 8.33331 5.83325 8.70641 5.83325 9.16665C5.83325 9.62688 6.20635 9.99998 6.66659 9.99998Z" fill="#878787" stroke="#878787" stroke-width="5"/>
<mask id="path-4-inside-1_138_6231" fill="white">
<path d="M15.8333 2.5H4.16663C3.50358 2.5 2.8677 2.76339 2.39886 3.23223C1.93002 3.70107 1.66663 4.33696 1.66663 5V17.5C1.66688 17.6477 1.70637 17.7926 1.78104 17.92C1.85572 18.0474 1.9629 18.1526 2.09163 18.225C2.21617 18.2956 2.3568 18.3329 2.49996 18.3333C2.64953 18.3333 2.79633 18.293 2.92496 18.2167L6.66663 15.95C6.80493 15.8677 6.96412 15.8271 7.12496 15.8333H15.8333C16.4963 15.8333 17.1322 15.5699 17.6011 15.1011C18.0699 14.6323 18.3333 13.9964 18.3333 13.3333V5C18.3333 4.33696 18.0699 3.70107 17.6011 3.23223C17.1322 2.76339 16.4963 2.5 15.8333 2.5ZM16.6666 13.3333C16.6666 13.5543 16.5788 13.7663 16.4225 13.9226C16.2663 14.0789 16.0543 14.1667 15.8333 14.1667H7.12496C6.66981 14.1663 6.2232 14.2902 5.83329 14.525L3.33329 16.025V5C3.33329 4.77899 3.42109 4.56702 3.57737 4.41074C3.73365 4.25446 3.94561 4.16667 4.16663 4.16667H15.8333C16.0543 4.16667 16.2663 4.25446 16.4225 4.41074C16.5788 4.56702 16.6666 4.77899 16.6666 5V13.3333Z"/>
</mask>
<path d="M15.8333 2.5H4.16663C3.50358 2.5 2.8677 2.76339 2.39886 3.23223C1.93002 3.70107 1.66663 4.33696 1.66663 5V17.5C1.66688 17.6477 1.70637 17.7926 1.78104 17.92C1.85572 18.0474 1.9629 18.1526 2.09163 18.225C2.21617 18.2956 2.3568 18.3329 2.49996 18.3333C2.64953 18.3333 2.79633 18.293 2.92496 18.2167L6.66663 15.95C6.80493 15.8677 6.96412 15.8271 7.12496 15.8333H15.8333C16.4963 15.8333 17.1322 15.5699 17.6011 15.1011C18.0699 14.6323 18.3333 13.9964 18.3333 13.3333V5C18.3333 4.33696 18.0699 3.70107 17.6011 3.23223C17.1322 2.76339 16.4963 2.5 15.8333 2.5ZM16.6666 13.3333C16.6666 13.5543 16.5788 13.7663 16.4225 13.9226C16.2663 14.0789 16.0543 14.1667 15.8333 14.1667H7.12496C6.66981 14.1663 6.2232 14.2902 5.83329 14.525L3.33329 16.025V5C3.33329 4.77899 3.42109 4.56702 3.57737 4.41074C3.73365 4.25446 3.94561 4.16667 4.16663 4.16667H15.8333C16.0543 4.16667 16.2663 4.25446 16.4225 4.41074C16.5788 4.56702 16.6666 4.77899 16.6666 5V13.3333Z" fill="#878787"/>
<path d="M4.16663 2.5V-2.5V2.5ZM1.66663 5H-3.33337H1.66663ZM1.66663 17.5H-3.33338L-3.33337 17.5086L1.66663 17.5ZM2.09163 18.225L4.55693 13.875L4.54928 13.8707L4.54162 13.8664L2.09163 18.225ZM2.49996 18.3333L2.48466 23.3333L2.49304 23.3333L2.50143 23.3333L2.49996 18.3333ZM2.92496 18.2167L5.47643 22.5167L5.49608 22.505L5.51562 22.4932L2.92496 18.2167ZM6.66663 15.95L4.10893 11.6537L4.09241 11.6635L4.07596 11.6735L6.66663 15.95ZM7.12496 15.8333L6.93265 20.8296L7.02877 20.8333H7.12496V15.8333ZM15.8333 15.8333V20.8333V15.8333ZM18.3333 13.3333H23.3333H18.3333ZM18.3333 5H23.3333H18.3333ZM7.12496 14.1667L7.12098 19.1667H7.12496V14.1667ZM5.83329 14.525L8.40577 18.8125L8.41265 18.8083L5.83329 14.525ZM3.33329 16.025H-1.66671V24.8559L5.90577 20.3125L3.33329 16.025ZM4.16663 4.16667V9.16667V4.16667ZM15.8333 -2.5H4.16663V7.5H15.8333V-2.5ZM4.16663 -2.5C2.1775 -2.5 0.269848 -1.70982 -1.13667 -0.303301L5.93439 6.76777C5.46555 7.23661 4.82967 7.5 4.16663 7.5V-2.5ZM-1.13667 -0.303301C-2.5432 1.10322 -3.33337 3.01088 -3.33337 5H6.66663C6.66663 5.66304 6.40323 6.29893 5.93439 6.76777L-1.13667 -0.303301ZM-3.33337 5V17.5H6.66663V5H-3.33337ZM-3.33337 17.5086C-3.33159 18.5423 -3.05518 19.5569 -2.53245 20.4486L6.09453 15.3914C6.46791 16.0283 6.66535 16.7531 6.66662 17.4914L-3.33337 17.5086ZM-2.53245 20.4486C-2.00972 21.3403 -1.25943 22.0771 -0.358366 22.5836L4.54162 13.8664C5.18524 14.2282 5.72116 14.7545 6.09453 15.3914L-2.53245 20.4486ZM-0.373674 22.575C0.498165 23.0691 1.48258 23.3302 2.48466 23.3333L2.51526 13.3334C3.23103 13.3355 3.93418 13.5221 4.55693 13.875L-0.373674 22.575ZM2.50143 23.3333C3.5484 23.333 4.57601 23.0509 5.47643 22.5167L0.373489 13.9167C1.01665 13.535 1.75065 13.3336 2.49849 13.3333L2.50143 23.3333ZM5.51562 22.4932L9.25729 20.2265L4.07596 11.6735L0.334294 13.9402L5.51562 22.4932ZM9.22432 20.2463C8.53279 20.658 7.73684 20.8606 6.93265 20.8296L7.31726 10.837C6.1914 10.7937 5.07707 11.0773 4.10893 11.6537L9.22432 20.2463ZM7.12496 20.8333H15.8333V10.8333H7.12496V20.8333ZM15.8333 20.8333C17.8224 20.8333 19.7301 20.0432 21.1366 18.6366L14.0655 11.5656C14.5344 11.0967 15.1703 10.8333 15.8333 10.8333V20.8333ZM21.1366 18.6366C22.5431 17.2301 23.3333 15.3225 23.3333 13.3333H13.3333C13.3333 12.6703 13.5967 12.0344 14.0655 11.5656L21.1366 18.6366ZM23.3333 13.3333V5H13.3333V13.3333H23.3333ZM23.3333 5C23.3333 3.01088 22.5431 1.10322 21.1366 -0.303301L14.0655 6.76777C13.5967 6.29892 13.3333 5.66304 13.3333 5H23.3333ZM21.1366 -0.303301C19.7301 -1.70982 17.8224 -2.5 15.8333 -2.5V7.5C15.1703 7.5 14.5344 7.23661 14.0655 6.76777L21.1366 -0.303301ZM11.6666 13.3333C11.6666 12.2283 12.1056 11.1685 12.887 10.3871L19.9581 17.4581C21.0521 16.3642 21.6666 14.8804 21.6666 13.3333H11.6666ZM12.887 10.3871C13.6684 9.60564 14.7282 9.16667 15.8333 9.16667V19.1667C17.3804 19.1667 18.8641 18.5521 19.9581 17.4581L12.887 10.3871ZM15.8333 9.16667H7.12496V19.1667H15.8333V9.16667ZM7.12894 9.16667C5.7635 9.16558 4.42366 9.53728 3.25394 10.2417L8.41265 18.8083C8.02274 19.0431 7.57613 19.167 7.12098 19.1667L7.12894 9.16667ZM3.26081 10.2375L0.760815 11.7375L5.90577 20.3125L8.40577 18.8125L3.26081 10.2375ZM8.33329 16.025V5H-1.66671V16.025H8.33329ZM8.33329 5C8.33329 6.10507 7.8943 7.16488 7.1129 7.94628L0.0418365 0.875211C-1.05212 1.96917 -1.66671 3.4529 -1.66671 5H8.33329ZM7.1129 7.94628C6.33151 8.72768 5.2717 9.16667 4.16663 9.16667V-0.833333C2.61953 -0.833333 1.1358 -0.218749 0.0418365 0.875211L7.1129 7.94628ZM4.16663 9.16667H15.8333V-0.833333H4.16663V9.16667ZM15.8333 9.16667C14.7282 9.16667 13.6684 8.72768 12.887 7.94628L19.9581 0.875211C18.8641 -0.218753 17.3804 -0.833333 15.8333 -0.833333V9.16667ZM12.887 7.94628C12.1056 7.16487 11.6666 6.10506 11.6666 5H21.6666C21.6666 3.45291 21.0521 1.96918 19.9581 0.875211L12.887 7.94628ZM11.6666 5V13.3333H21.6666V5H11.6666Z" fill="#878787" mask="url(#path-4-inside-1_138_6231)"/>
</svg>
