<svg width="24" height="25" viewBox="0 0 24 25" fill="none" xmlns="http://www.w3.org/2000/svg">
<path d="M5 19.5103C4.71667 19.5103 4.47917 19.4144 4.2875 19.2228C4.09583 19.0311 4 18.7936 4 18.5103C4 18.2269 4.09583 17.9894 4.2875 17.7978C4.47917 17.6061 4.71667 17.5103 5 17.5103H6V10.5103C6 9.12692 6.41667 7.89775 7.25 6.82275C8.08333 5.74775 9.16667 5.04359 10.5 4.71025V4.01025C10.5 3.59359 10.6458 3.23942 10.9375 2.94775C11.2292 2.65609 11.5833 2.51025 12 2.51025C12.4167 2.51025 12.7708 2.65609 13.0625 2.94775C13.3542 3.23942 13.5 3.59359 13.5 4.01025V4.71025C14.8333 5.04359 15.9167 5.74775 16.75 6.82275C17.5833 7.89775 18 9.12692 18 10.5103V17.5103H19C19.2833 17.5103 19.5208 17.6061 19.7125 17.7978C19.9042 17.9894 20 18.2269 20 18.5103C20 18.7936 19.9042 19.0311 19.7125 19.2228C19.5208 19.4144 19.2833 19.5103 19 19.5103H5ZM12 22.5103C11.45 22.5103 10.9792 22.3144 10.5875 21.9228C10.1958 21.5311 10 21.0603 10 20.5103H14C14 21.0603 13.8042 21.5311 13.4125 21.9228C13.0208 22.3144 12.55 22.5103 12 22.5103ZM8 17.5103H16V10.5103C16 9.41025 15.6083 8.46859 14.825 7.68525C14.0417 6.90192 13.1 6.51025 12 6.51025C10.9 6.51025 9.95833 6.90192 9.175 7.68525C8.39167 8.46859 8 9.41025 8 10.5103V17.5103Z" fill="#111111"/>
</svg>
