<svg width="24" height="25" viewBox="0 0 24 25" fill="none" xmlns="http://www.w3.org/2000/svg">
<path d="M13 8.51025V4.51025C13 4.22692 13.0958 3.98942 13.2875 3.79775C13.4792 3.60609 13.7167 3.51025 14 3.51025H20C20.2833 3.51025 20.5208 3.60609 20.7125 3.79775C20.9042 3.98942 21 4.22692 21 4.51025V8.51025C21 8.79359 20.9042 9.03109 20.7125 9.22275C20.5208 9.41442 20.2833 9.51025 20 9.51025H14C13.7167 9.51025 13.4792 9.41442 13.2875 9.22275C13.0958 9.03109 13 8.79359 13 8.51025ZM3 12.5103V4.51025C3 4.22692 3.09583 3.98942 3.2875 3.79775C3.47917 3.60609 3.71667 3.51025 4 3.51025H10C10.2833 3.51025 10.5208 3.60609 10.7125 3.79775C10.9042 3.98942 11 4.22692 11 4.51025V12.5103C11 12.7936 10.9042 13.0311 10.7125 13.2228C10.5208 13.4144 10.2833 13.5103 10 13.5103H4C3.71667 13.5103 3.47917 13.4144 3.2875 13.2228C3.09583 13.0311 3 12.7936 3 12.5103ZM13 20.5103V12.5103C13 12.2269 13.0958 11.9894 13.2875 11.7978C13.4792 11.6061 13.7167 11.5103 14 11.5103H20C20.2833 11.5103 20.5208 11.6061 20.7125 11.7978C20.9042 11.9894 21 12.2269 21 12.5103V20.5103C21 20.7936 20.9042 21.0311 20.7125 21.2228C20.5208 21.4144 20.2833 21.5103 20 21.5103H14C13.7167 21.5103 13.4792 21.4144 13.2875 21.2228C13.0958 21.0311 13 20.7936 13 20.5103ZM3 20.5103V16.5103C3 16.2269 3.09583 15.9894 3.2875 15.7978C3.47917 15.6061 3.71667 15.5103 4 15.5103H10C10.2833 15.5103 10.5208 15.6061 10.7125 15.7978C10.9042 15.9894 11 16.2269 11 16.5103V20.5103C11 20.7936 10.9042 21.0311 10.7125 21.2228C10.5208 21.4144 10.2833 21.5103 10 21.5103H4C3.71667 21.5103 3.47917 21.4144 3.2875 21.2228C3.09583 21.0311 3 20.7936 3 20.5103ZM5 11.5103H9V5.51025H5V11.5103ZM15 19.5103H19V13.5103H15V19.5103ZM15 7.51025H19V5.51025H15V7.51025ZM5 19.5103H9V17.5103H5V19.5103Z" fill="#111111"/>
</svg>
