<svg width="40" height="40" viewBox="0 0 40 40" fill="none" xmlns="http://www.w3.org/2000/svg">
<path d="M23 20C23 18.34 21.66 17 20 17C18.34 17 17 18.34 17 20C17 21.66 18.34 23 20 23C20.41 23 20.81 22.92 21.17 22.76" stroke="#B2ABAB" stroke-width="1.5" stroke-miterlimit="10" stroke-linecap="round" stroke-linejoin="round"/>
<path d="M14.8799 28.58L15.9699 29.21C16.7599 29.68 17.7799 29.4 18.2499 28.61L18.3599 28.42C19.2599 26.85 20.7399 26.85 21.6499 28.42L21.7599 28.61C22.2299 29.4 23.2499 29.68 24.0399 29.21L25.7699 28.22C26.6799 27.7 26.9899 26.53 26.4699 25.63C25.5599 24.06 26.2999 22.78 28.1099 22.78C29.1499 22.78 30.0099 21.93 30.0099 20.88V19.12C30.0099 18.08 29.1599 17.22 28.1099 17.22C27.0999 17.22 26.4199 16.82 26.1799 16.19C25.9899 15.7 26.0699 15.06 26.4699 14.37C26.9899 13.46 26.6799 12.3 25.7699 11.78L24.9599 11.32" stroke="#B2ABAB" stroke-width="1.5" stroke-miterlimit="10" stroke-linecap="round" stroke-linejoin="round"/>
<path d="M21.64 11.58C20.74 13.15 19.26 13.15 18.35 11.58L18.24 11.39C17.78 10.6 16.76 10.32 15.97 10.79L14.24 11.78C13.33 12.3 13.02 13.47 13.54 14.38C14.45 15.94 13.71 17.22 11.9 17.22C10.86 17.22 10 18.07 10 19.12V20.88C10 21.92 10.85 22.78 11.9 22.78C13.71 22.78 14.45 24.06 13.54 25.63" stroke="#B2ABAB" stroke-width="1.5" stroke-miterlimit="10" stroke-linecap="round" stroke-linejoin="round"/>
</svg>
