<svg width="30" height="30" viewBox="0 0 30 30" fill="none" xmlns="http://www.w3.org/2000/svg">
<rect width="30" height="30" rx="15" fill="#34CAA5"/>
<g clip-path="url(#clip0_205_4491)">
<path d="M15 19.2188C17.33 19.2188 19.2188 17.33 19.2188 15C19.2188 12.67 17.33 10.7812 15 10.7812C12.67 10.7812 10.7812 12.67 10.7812 15C10.7812 17.33 12.67 19.2188 15 19.2188Z" fill="white"/>
<path d="M15 9.09345C14.5336 9.09345 14.1562 8.71564 14.1562 8.2497V7.40625C14.1562 6.94031 14.5336 6.5625 15 6.5625C15.4664 6.5625 15.8438 6.94031 15.8438 7.40625V8.2497C15.8438 8.71564 15.4664 9.09345 15 9.09345Z" fill="white"/>
<path d="M19.7734 11.0706C19.5576 11.0706 19.3417 10.9882 19.1769 10.8234C18.8473 10.4939 18.8473 9.95964 19.1769 9.63015L19.7734 9.03369C20.103 8.7043 20.637 8.7042 20.9666 9.03379C21.2961 9.36328 21.2961 9.89751 20.9666 10.227L20.37 10.8235C20.2052 10.9882 19.9893 11.0706 19.7734 11.0706Z" fill="white"/>
<path d="M22.5937 15.8438H21.75C21.2836 15.8438 20.9062 15.4659 20.9062 15C20.9062 14.5341 21.2836 14.1562 21.75 14.1562H22.5937C23.0601 14.1562 23.4375 14.5341 23.4375 15C23.4375 15.4659 23.0601 15.8438 22.5937 15.8438Z" fill="white"/>
<path d="M20.37 21.2133C20.1541 21.2133 19.9382 21.131 19.7734 20.9662L19.1769 20.3698C18.8473 20.0403 18.8473 19.5061 19.1769 19.1766C19.5065 18.847 20.0404 18.8469 20.37 19.1765L20.9666 19.7729C21.2961 20.1024 21.2961 20.6366 20.9666 20.9661C20.8018 21.1309 20.5859 21.2133 20.37 21.2133Z" fill="white"/>
<path d="M15 23.4374C14.5336 23.4374 14.1562 23.0596 14.1562 22.5937V21.7502C14.1562 21.2843 14.5336 20.9065 15 20.9065C15.4664 20.9065 15.8438 21.2843 15.8438 21.7502V22.5937C15.8438 23.0596 15.4664 23.4374 15 23.4374Z" fill="white"/>
<path d="M9.62988 21.2134C9.414 21.2134 9.19812 21.131 9.03333 20.9662C8.70374 20.6367 8.70374 20.1025 9.03333 19.773L9.62988 19.1765C9.95947 18.8471 10.4934 18.847 10.823 19.1766C11.1526 19.5061 11.1526 20.0403 10.823 20.3698L10.2264 20.9663C10.0616 21.131 9.84576 21.2134 9.62988 21.2134Z" fill="white"/>
<path d="M8.25 15.8438H7.40625C6.93988 15.8438 6.5625 15.4659 6.5625 15C6.5625 14.5341 6.93988 14.1562 7.40625 14.1562H8.25C8.71637 14.1562 9.09375 14.5341 9.09375 15C9.09375 15.4659 8.71637 15.8438 8.25 15.8438Z" fill="white"/>
<path d="M10.2264 11.0706C10.0106 11.0706 9.79468 10.9883 9.62988 10.8235L9.03333 10.2271C8.70374 9.89759 8.70374 9.36335 9.03333 9.03386C9.36292 8.70427 9.89685 8.70417 10.2264 9.03376L10.823 9.63022C11.1526 9.95971 11.1526 10.4939 10.823 10.8234C10.6582 10.9882 10.4423 11.0706 10.2264 11.0706Z" fill="white"/>
</g>
<defs>
<clipPath id="clip0_205_4491">
<rect width="16.875" height="16.875" fill="white" transform="translate(6.5625 6.5625)"/>
</clipPath>
</defs>
</svg>
