<svg width="24" height="25" viewBox="0 0 24 25" fill="none" xmlns="http://www.w3.org/2000/svg">
<path d="M17 15.5103C16.3 15.5103 15.7083 15.2686 15.225 14.7853C14.7417 14.3019 14.5 13.7103 14.5 13.0103C14.5 12.3103 14.7417 11.7186 15.225 11.2353C15.7083 10.7519 16.3 10.5103 17 10.5103C17.7 10.5103 18.2917 10.7519 18.775 11.2353C19.2583 11.7186 19.5 12.3103 19.5 13.0103C19.5 13.7103 19.2583 14.3019 18.775 14.7853C18.2917 15.2686 17.7 15.5103 17 15.5103ZM13 20.5103C12.7167 20.5103 12.4792 20.4144 12.2875 20.2228C12.0958 20.0311 12 19.7936 12 19.5103V19.1103C12 18.7103 12.1042 18.3394 12.3125 17.9978C12.5208 17.6561 12.8167 17.4103 13.2 17.2603C13.8 17.0103 14.4208 16.8228 15.0625 16.6978C15.7042 16.5728 16.35 16.5103 17 16.5103C17.65 16.5103 18.2958 16.5728 18.9375 16.6978C19.5792 16.8228 20.2 17.0103 20.8 17.2603C21.1833 17.4103 21.4792 17.6561 21.6875 17.9978C21.8958 18.3394 22 18.7103 22 19.1103V19.5103C22 19.7936 21.9042 20.0311 21.7125 20.2228C21.5208 20.4144 21.2833 20.5103 21 20.5103H13ZM10 12.5103C8.9 12.5103 7.95833 12.1186 7.175 11.3353C6.39167 10.5519 6 9.61025 6 8.51025C6 7.41025 6.39167 6.46859 7.175 5.68525C7.95833 4.90192 8.9 4.51025 10 4.51025C11.1 4.51025 12.0417 4.90192 12.825 5.68525C13.6083 6.46859 14 7.41025 14 8.51025C14 9.61025 13.6083 10.5519 12.825 11.3353C12.0417 12.1186 11.1 12.5103 10 12.5103ZM3 20.5103C2.71667 20.5103 2.47917 20.4144 2.2875 20.2228C2.09583 20.0311 2 19.7936 2 19.5103V17.5103C2 17.0769 2.15 16.6478 2.45 16.2228C2.75 15.7978 3.19167 15.4269 3.775 15.1103C4.675 14.6269 5.65833 14.2394 6.725 13.9478C7.79167 13.6561 8.88333 13.5103 10 13.5103C10.45 13.5103 10.9292 13.5436 11.4375 13.6103C11.9458 13.6769 12.4667 13.7769 13 13.9103V15.2103C12.7667 15.2936 12.5667 15.3769 12.4 15.4603C12.2333 15.5436 12.0583 15.6353 11.875 15.7353C11.575 15.6519 11.2625 15.5936 10.9375 15.5603C10.6125 15.5269 10.3 15.5103 10 15.5103C9.03333 15.5103 8.0875 15.6269 7.1625 15.8603C6.2375 16.0936 5.35 16.4269 4.5 16.8603C4.33333 16.9436 4.20833 17.0603 4.125 17.2103C4.04167 17.3603 4 17.5269 4 17.7103V18.5103H10V20.5103H3ZM10 10.5103C10.55 10.5103 11.0208 10.3144 11.4125 9.92275C11.8042 9.53109 12 9.06025 12 8.51025C12 7.96025 11.8042 7.48942 11.4125 7.09775C11.0208 6.70609 10.55 6.51025 10 6.51025C9.45 6.51025 8.97917 6.70609 8.5875 7.09775C8.19583 7.48942 8 7.96025 8 8.51025C8 9.06025 8.19583 9.53109 8.5875 9.92275C8.97917 10.3144 9.45 10.5103 10 10.5103Z" fill="#111111"/>
</svg>
