<svg width="24" height="25" viewBox="0 0 24 25" fill="none" xmlns="http://www.w3.org/2000/svg">
<path d="M7 18.5103C6.71667 18.5103 6.47917 18.4144 6.2875 18.2228C6.09583 18.0311 6 17.7936 6 17.5103V15.5103H19V6.51025H21C21.2833 6.51025 21.5208 6.60609 21.7125 6.79775C21.9042 6.98942 22 7.22692 22 7.51025V20.0853C22 20.5353 21.7958 20.8478 21.3875 21.0228C20.9792 21.1978 20.6167 21.1269 20.3 20.8103L18 18.5103H7ZM6 13.5103L3.7 15.8103C3.38333 16.1269 3.02083 16.1978 2.6125 16.0228C2.20417 15.8478 2 15.5353 2 15.0853V3.51025C2 3.22692 2.09583 2.98942 2.2875 2.79775C2.47917 2.60609 2.71667 2.51025 3 2.51025H16C16.2833 2.51025 16.5208 2.60609 16.7125 2.79775C16.9042 2.98942 17 3.22692 17 3.51025V12.5103C17 12.7936 16.9042 13.0311 16.7125 13.2228C16.5208 13.4144 16.2833 13.5103 16 13.5103H6ZM15 11.5103V4.51025H4V11.5103H15Z" fill="#111111"/>
</svg>
